<?xml version="1.0" encoding="UTF-8"?>
<svg id="Layer_1" xmlns="http://www.w3.org/2000/svg" version="1.1" viewBox="0 0 1068.44 40.08">
  <!-- Generator: Adobe Illustrator 29.7.1, SVG Export Plug-In . SVG Version: 2.1.1 Build 8)  -->
  <defs>
    <style>
      .st0 {
        fill: none;
        stroke: #fff;
        stroke-miterlimit: 10;
        stroke-width: 2px;
      }
    </style>
  </defs>
  <path class="st0" d="M24.67,1.83l12.45,24.28,5.61-17.62c.29-.97.44-1.83.44-2.58,0-.9-.31-1.61-.92-2.15-.62-.54-1.68-.85-3.19-.94l.32-.99h12.63l-.29.99c-1.61.09-2.93.5-3.98,1.23s-1.93,2.21-2.66,4.43l-9.72,30.16h-1.12L18.27,7.61l-7.72,24.2c-.25.84-.38,1.59-.38,2.26,0,.97.35,1.74,1.04,2.32.7.58,1.81.87,3.33.87l-.26.99H1.3l.26-.99c1.12,0,1.91-.09,2.38-.27.82-.29,1.62-.84,2.41-1.65.78-.81,1.42-1.99,1.91-3.53L16.69,5.35c-1.04-1.06-1.91-1.74-2.61-2.04s-1.76-.47-3.17-.48l.32-.99h13.45-.01Z"/>
  <path class="st0" d="M62.58,22.16l-3.35-13.27c-.57-2.29-1.25-3.86-2.06-4.7-.61-.64-1.71-1.1-3.32-1.37l.32-.99h19.12l-.35.99c-1.86,0-3.22.34-4.07,1.03-.85.69-1.28,1.51-1.28,2.46,0,.59.18,1.62.53,3.09l2.58,10.77,6.43-8.11c1.64-2.08,2.67-3.54,3.08-4.39s.62-1.6.62-2.24-.26-1.21-.79-1.69-1.38-.79-2.55-.91l.32-.99h11.95v.99c-1.08.11-2.01.43-2.79.97s-2.31,2.24-4.58,5.1l-11.3,14.23-2.64,8.43c-.57,1.74-.85,2.75-.85,3.04,0,.77.32,1.41.97,1.91s1.73.75,3.26.75h1.12l-.32.99h-20.38l.29-.99c1.49.02,2.68-.17,3.58-.55.9-.39,1.58-.88,2.03-1.49.31-.43.77-1.58,1.38-3.44l3.05-9.61h0Z"/>
  <path class="st0" d="M120.28,38.25h-17.24l.32-.99c1.14-.09,1.98-.39,2.53-.9.55-.51.82-1.14.82-1.89,0-.81-.3-2.08-.91-3.84l-4.23-12.41-4.2,13.29c-.47,1.49-.7,2.56-.7,3.22,0,.75.32,1.36.97,1.81.65.46,1.81.69,3.49.71l-.32.99h-19.35l.32-.99c1.55-.04,2.7-.22,3.46-.56s1.37-.87,1.82-1.58c.45-.72.99-2.08,1.61-4.11l6.69-21.19c.76-2.43,1.15-3.98,1.15-4.65,0-.61-.31-1.14-.93-1.58-.62-.45-1.79-.7-3.51-.75l.32-.99h18.73l-.32.99c-1.25,0-2.21.17-2.88.51-.88.47-1.6,1.15-2.14,2.04-.37.59-.88,1.96-1.53,4.11l-2.7,8.7,10.37-8.7c2.02-1.7,3.14-2.72,3.38-3.06.31-.45.47-.92.47-1.42,0-.54-.21-1-.63-1.4-.42-.39-1.15-.65-2.19-.78l.32-.99h15l-.32.99c-1.16.09-2.09.24-2.82.46-.96.29-2.06.77-3.29,1.46-1.23.69-2.49,1.5-3.76,2.43l-2.73,2.31-6.31,5.18,4.7,13.43c1.53,4.42,2.71,7.04,3.55,7.84.84.81,1.94,1.24,3.29,1.32l-.32.99h.02Z"/>
  <path class="st0" d="M125.8,23.4h17.09l-1.82,5.59h-17.18s1.91-5.59,1.91-5.59Z"/>
  <path class="st0" d="M168.14,3.87l-4.4,13.75c3-.04,4.94-.14,5.84-.32,1.47-.27,2.8-.84,3.99-1.71s2.19-2.07,3-3.61h1.15l-4.55,14.37h-1.17c.2-.93.29-1.67.29-2.23,0-1.11-.25-2-.75-2.66s-1.14-1.11-1.92-1.36c-.78-.24-2.94-.4-6.46-.47l-3.58,11.36-.7,2.28c-.1.45-.15.89-.15,1.32,0,.63.13,1.12.4,1.48.26.36.69.64,1.28.85s1.7.32,3.35.33l-.32.99h-19.88l.32-.99c1.92,0,3.32-.33,4.2-.98.88-.65,1.67-2.08,2.38-4.28l7.11-22.29c.74-2.34,1.14-3.85,1.17-4.51-.04-.63-.35-1.16-.94-1.6s-1.79-.69-3.61-.77l.29-.99h32.53l-2.67,9.61h-1.09c-.12-2-.46-3.5-1.03-4.47-.57-.98-1.5-1.74-2.8-2.28-1.3-.55-3.38-.82-6.24-.82h-5.04Z"/>
  <path class="st0" d="M191.95,2.83l.32-.99h19.44l-.38.99c-1.76,0-3.11.36-4.04,1.07-.93.72-1.75,2.21-2.45,4.49l-7.28,23.31c-.53,1.65-.79,2.75-.79,3.3,0,.64.27,1.15.82,1.5.7.47,2.04.72,3.99.75l-.29.99h-19.76l.32-.99c1.98,0,3.43-.34,4.35-1.03.92-.69,1.75-2.2,2.5-4.53l7.34-23.31c.45-1.43.68-2.52.68-3.25,0-.66-.27-1.18-.82-1.56s-1.86-.63-3.93-.75h-.02Z"/>
  <path class="st0" d="M236.91,38.25h-31.8l.32-.99c1.9,0,3.28-.33,4.16-1.01.87-.67,1.68-2.18,2.42-4.53l7.4-23.39c.41-1.29.62-2.3.62-3.04s-.29-1.29-.88-1.72c-.59-.43-1.74-.68-3.46-.75l.32-.99h19.12l-.32.99c-1.84.04-3.22.41-4.13,1.13-.91.72-1.72,2.18-2.42,4.38l-6.75,21.4c-.86,2.72-1.29,4.38-1.29,4.97,0,.36.22.69.66,1.01.44.31,1.15.47,2.13.47,3.25,0,6.39-.68,9.41-2.04s5.58-3.39,7.68-6.1h1.23l-4.4,10.21h-.02Z"/>
  <path class="st0" d="M279.34,1.83l2.94,25.03,18.94-25.03h13.95l-.35.99c-1.92,0-3.38.38-4.38,1.13s-1.85,2.24-2.55,4.46l-7.34,23.31c-.47,1.47-.7,2.56-.7,3.28,0,.66.29,1.2.88,1.6.59.4,1.74.62,3.46.66l-.26.99h-19.88l.35-.99c2.13,0,3.71-.37,4.73-1.11,1.02-.74,1.88-2.22,2.58-4.42l7.49-23.61-22.79,30.13h-1.2l-3.58-30.72-7.61,24.2c-.31.99-.47,1.81-.47,2.47,0,.9.34,1.62,1.01,2.16.68.55,1.83.85,3.45.9l-.29.99h-13.15l.26-.99c1.59-.05,2.8-.36,3.64-.91,1.49-1,2.56-2.54,3.23-4.62l8.6-26.91c-.82-.82-1.56-1.36-2.22-1.61s-1.76-.38-3.3-.38l.35-.99h14.21,0Z"/>
  <path class="st0" d="M334.42,26.51h-12.33l-2.47,2.79-2.82,3.09c-.55.66-.95,1.26-1.2,1.8-.2.41-.29.82-.29,1.24s.25.83.75,1.2,1.33.58,2.48.63v.99h-11.89l.29-.99c1.06-.16,2-.5,2.82-1.02,1.1-.72,2.67-2.19,4.73-4.43l28.22-30.8h1.32l-1.32,29.81c-.06,1.56-.09,2.5-.09,2.82,0,1.22.27,2.1.81,2.66s1.43.88,2.69.97l-.29.99h-17.24l.32-.99c1.7-.14,2.68-.27,2.94-.38.55-.25,1.05-.77,1.5-1.57s.72-2.18.82-4.15l.26-4.65h-.01ZM334.42,24.31l.76-11.87-11.07,11.87h10.31Z"/>
  <path class="st0" d="M367.43,20.47l-3.52,11.04c-.51,1.56-.76,2.7-.76,3.44,0,.68.3,1.23.91,1.64.61.41,1.87.64,3.79.67l-.41.99h-19.17l.35-.99c1.92,0,3.32-.34,4.21-1.02.89-.68,1.71-2.2,2.45-4.57l7.4-23.36c.41-1.31.62-2.34.62-3.09s-.25-1.26-.76-1.64c-.51-.38-1.69-.63-3.55-.75l.29-.99h16.5c4.72,0,8.04.75,9.95,2.26,1.92,1.5,2.88,3.44,2.88,5.8,0,2.49-1.12,4.74-3.35,6.74-1.41,1.25-3.91,2.34-7.49,3.25l3.58,11.04c.96,2.95,1.8,4.74,2.51,5.34.71.61,1.9.94,3.57.99v.99h-12.39l-5.64-17.78-.97.05c-.22,0-.55-.02-1-.05ZM367.84,18.86c.68.04,1.26.05,1.73.05,2.86,0,5.21-.9,7.05-2.69,1.84-1.79,2.76-4.14,2.76-7.04,0-1.72-.49-3.03-1.47-3.92-.98-.9-2.27-1.34-3.88-1.34-.39,0-.85,0-1.38.03l-4.82,14.91h.01Z"/>
  <path class="st0" d="M398.58,2.83l.32-.99h19.44l-.38.99c-1.76,0-3.11.36-4.04,1.07-.93.72-1.75,2.21-2.45,4.49l-7.28,23.31c-.53,1.65-.79,2.75-.79,3.3,0,.64.27,1.15.82,1.5.7.47,2.04.72,3.99.75l-.29.99h-19.76l.32-.99c1.98,0,3.43-.34,4.35-1.03s1.75-2.2,2.5-4.53l7.34-23.31c.45-1.43.68-2.52.68-3.25,0-.66-.27-1.18-.82-1.56-.55-.38-1.86-.63-3.93-.75h-.02Z"/>
  <path class="st0" d="M423.31,1.83h32.03l-3.02,9.8h-1.06c.04-.52.06-.98.06-1.37,0-1.86-.6-3.31-1.79-4.34-1.19-1.03-3.21-1.62-6.05-1.76l-8.87,27.42c-.49,1.52-.73,2.65-.73,3.38,0,.68.3,1.22.91,1.62.61.4,1.84.62,3.7.66l-.26.99h-19.76l.35-.99c2.02,0,3.48-.34,4.4-1.03.92-.69,1.76-2.23,2.53-4.63l8.87-27.42c-3.05.09-5.61.7-7.66,1.83s-3.93,3.01-5.64,5.64h-1.15s3.14-9.8,3.14-9.8Z"/>
  <path class="st0" d="M458.72,2.83l.32-.99h19.44l-.38.99c-1.76,0-3.11.36-4.04,1.07-.93.72-1.75,2.21-2.45,4.49l-7.28,23.31c-.53,1.65-.79,2.75-.79,3.3,0,.64.27,1.15.82,1.5.7.47,2.04.72,3.99.75l-.29.99h-19.76l.32-.99c1.98,0,3.43-.34,4.35-1.03s1.75-2.2,2.5-4.53l7.34-23.31c.45-1.43.68-2.52.68-3.25,0-.66-.27-1.18-.82-1.56-.55-.38-1.86-.63-3.94-.75h0Z"/>
  <path class="st0" d="M496.57,1.83l2.94,25.03,18.94-25.03h13.95l-.35.99c-1.92,0-3.38.38-4.37,1.13-1,.75-1.85,2.24-2.56,4.46l-7.34,23.31c-.47,1.47-.7,2.56-.7,3.28,0,.66.29,1.2.88,1.6.59.4,1.74.62,3.47.66l-.26.99h-19.88l.35-.99c2.13,0,3.71-.37,4.73-1.11s1.88-2.22,2.58-4.42l7.49-23.61-22.79,30.13h-1.2l-3.58-30.72-7.6,24.2c-.31.99-.47,1.81-.47,2.47,0,.9.34,1.62,1.01,2.16.68.55,1.83.85,3.45.9l-.29.99h-13.15l.26-.99c1.59-.05,2.8-.36,3.64-.91,1.49-1,2.56-2.54,3.23-4.62l8.6-26.91c-.82-.82-1.56-1.36-2.22-1.61s-1.76-.38-3.3-.38l.35-.99h14.21-.02Z"/>
  <path class="st0" d="M550.01,3.85l-4.43,14.13h1.35c3.56,0,6.16-.43,7.8-1.29,1.63-.86,3.02-2.38,4.15-4.57h1.09l-4.46,14.18h-1.03c.18-.95.26-1.72.26-2.31,0-.98-.32-1.79-.95-2.42-.64-.63-1.46-1.07-2.48-1.34-.67-.18-2.05-.27-4.14-.27h-2.29l-3.82,12.22c-.33,1.07-.5,1.87-.5,2.39,0,.41.22.74.65.99.63.36,1.81.54,3.55.54,3.35,0,6.5-.65,9.46-1.95s5.61-3.26,7.96-5.89h1.2l-4.14,9.99h-34.06l.35-.99c2,0,3.46-.34,4.38-1.03s1.75-2.21,2.5-4.55l7.49-23.44c.41-1.31.62-2.34.62-3.09,0-.68-.26-1.2-.79-1.57-.53-.37-1.73-.61-3.61-.74l.32-.99h31.74l-2.55,9.1h-1.06c-.08-1.79-.38-3.05-.91-3.79-.82-1.15-1.91-1.98-3.27-2.51-1.36-.53-3.57-.79-6.62-.79h-3.76Z"/>
  <path class="st0" d="M605.15,3.85l-4.43,14.13h1.35c3.56,0,6.16-.43,7.8-1.29,1.63-.86,3.02-2.38,4.15-4.57h1.09l-4.46,14.18h-1.03c.18-.95.26-1.72.26-2.31,0-.98-.32-1.79-.95-2.42-.64-.63-1.46-1.07-2.48-1.34-.67-.18-2.05-.27-4.14-.27h-2.29l-3.82,12.22c-.33,1.07-.5,1.87-.5,2.39,0,.41.22.74.65.99.63.36,1.81.54,3.55.54,3.35,0,6.5-.65,9.46-1.95s5.61-3.26,7.96-5.89h1.2l-4.14,9.99h-34.06l.35-.99c2,0,3.46-.34,4.38-1.03s1.75-2.21,2.5-4.55l7.49-23.44c.41-1.31.62-2.34.62-3.09,0-.68-.26-1.2-.79-1.57-.53-.37-1.73-.61-3.61-.74l.32-.99h31.74l-2.55,9.1h-1.06c-.08-1.79-.38-3.05-.91-3.79-.82-1.15-1.91-1.98-3.27-2.51-1.36-.53-3.57-.79-6.62-.79h-3.76Z"/>
  <path class="st0" d="M624.82,23.4h17.09l-1.82,5.59h-17.18l1.91-5.59Z"/>
  <path class="st0" d="M652.19,1.83h32.03l-3.02,9.8h-1.06c.04-.52.06-.98.06-1.37,0-1.86-.6-3.31-1.79-4.34-1.19-1.03-3.21-1.62-6.05-1.76l-8.87,27.42c-.49,1.52-.73,2.65-.73,3.38,0,.68.3,1.22.91,1.62.61.4,1.84.62,3.7.66l-.26.99h-19.76l.35-.99c2.02,0,3.49-.34,4.41-1.03s1.76-2.23,2.52-4.63l8.87-27.42c-3.05.09-5.61.7-7.66,1.83s-3.93,3.01-5.64,5.64h-1.14l3.14-9.8h0Z"/>
  <path class="st0" d="M696.56,20.47l-3.52,11.04c-.51,1.56-.76,2.7-.76,3.44,0,.68.3,1.23.91,1.64s1.87.64,3.79.67l-.41.99h-19.17l.35-.99c1.92,0,3.32-.34,4.21-1.02s1.71-2.2,2.45-4.57l7.4-23.36c.41-1.31.62-2.34.62-3.09s-.25-1.26-.76-1.64c-.51-.38-1.69-.63-3.55-.75l.29-.99h16.5c4.72,0,8.04.75,9.95,2.26,1.92,1.5,2.88,3.44,2.88,5.8,0,2.49-1.12,4.74-3.35,6.74-1.41,1.25-3.9,2.34-7.49,3.25l3.58,11.04c.96,2.95,1.8,4.74,2.51,5.34s1.9.94,3.57.99v.99h-12.39l-5.64-17.78-.97.05c-.22,0-.55-.02-1-.05h0ZM696.97,18.86c.69.04,1.26.05,1.73.05,2.86,0,5.21-.9,7.05-2.69,1.84-1.79,2.76-4.14,2.76-7.04,0-1.72-.49-3.03-1.47-3.92-.98-.9-2.27-1.34-3.88-1.34-.39,0-.85,0-1.38.03l-4.82,14.91h.01Z"/>
  <path class="st0" d="M743.77,26.51h-12.33l-2.47,2.79-2.82,3.09c-.55.66-.95,1.26-1.2,1.8-.2.41-.29.82-.29,1.24s.25.83.75,1.2,1.33.58,2.48.63v.99h-11.89l.29-.99c1.06-.16,2-.5,2.82-1.02,1.1-.72,2.67-2.19,4.73-4.43l28.22-30.8h1.32l-1.32,29.81c-.06,1.56-.09,2.5-.09,2.82,0,1.22.27,2.1.81,2.66s1.43.88,2.69.97l-.29.99h-17.24l.32-.99c1.7-.14,2.68-.27,2.94-.38.55-.25,1.05-.77,1.5-1.57s.72-2.18.82-4.15l.26-4.65h0ZM743.77,24.31l.76-11.87-11.07,11.87h10.31Z"/>
  <path class="st0" d="M767.82,2.83l.32-.99h19.44l-.38.99c-1.76,0-3.11.36-4.04,1.07-.93.72-1.75,2.21-2.45,4.49l-7.28,23.31c-.53,1.65-.79,2.75-.79,3.3,0,.64.27,1.15.82,1.5.7.47,2.04.72,3.99.75l-.29.99h-19.76l.32-.99c1.98,0,3.43-.34,4.35-1.03s1.75-2.2,2.5-4.53l7.34-23.31c.45-1.43.68-2.52.68-3.25,0-.66-.27-1.18-.82-1.56s-1.86-.63-3.94-.75h-.01Z"/>
  <path class="st0" d="M804.35,1.83l12.45,24.28,5.61-17.62c.29-.97.44-1.83.44-2.58,0-.9-.31-1.61-.92-2.15-.62-.54-1.68-.85-3.19-.94l.32-.99h12.63l-.29.99c-1.6.09-2.93.5-3.98,1.23s-1.93,2.21-2.66,4.43l-9.72,30.16h-1.12l-15.97-31.04-7.72,24.2c-.26.84-.38,1.59-.38,2.26,0,.97.35,1.74,1.04,2.32.7.58,1.81.87,3.33.87l-.26.99h-12.98l.26-.99c1.12,0,1.91-.09,2.38-.27.82-.29,1.63-.84,2.41-1.65s1.42-1.99,1.91-3.53l8.43-26.45c-1.04-1.06-1.91-1.74-2.61-2.04s-1.76-.47-3.17-.48l.32-.99h13.45-.01Z"/>
  <path class="st0" d="M834.65,2.83l.32-.99h19.44l-.38.99c-1.76,0-3.11.36-4.04,1.07-.93.72-1.75,2.21-2.45,4.49l-7.28,23.31c-.53,1.65-.79,2.75-.79,3.3,0,.64.27,1.15.82,1.5.7.47,2.04.72,3.99.75l-.29.99h-19.76l.32-.99c1.98,0,3.43-.34,4.35-1.03s1.75-2.2,2.5-4.53l7.34-23.31c.45-1.43.68-2.52.68-3.25,0-.66-.27-1.18-.82-1.56s-1.86-.63-3.94-.75h-.01Z"/>
  <path class="st0" d="M871.18,1.83l12.45,24.28,5.61-17.62c.29-.97.44-1.83.44-2.58,0-.9-.31-1.61-.92-2.15-.62-.54-1.68-.85-3.19-.94l.32-.99h12.63l-.29.99c-1.6.09-2.93.5-3.98,1.23s-1.93,2.21-2.66,4.43l-9.72,30.16h-1.12l-15.97-31.04-7.72,24.2c-.26.84-.38,1.59-.38,2.26,0,.97.35,1.74,1.04,2.32.7.58,1.81.87,3.33.87l-.26.99h-12.98l.26-.99c1.12,0,1.91-.09,2.38-.27.82-.29,1.63-.84,2.41-1.65s1.42-1.99,1.91-3.53l8.43-26.45c-1.04-1.06-1.91-1.74-2.61-2.04s-1.76-.47-3.17-.48l.32-.99h13.45-.01Z"/>
  <path class="st0" d="M938.1,1l-2.76,11.68h-1.12c-.16-3.4-.99-5.85-2.51-7.34-1.52-1.5-3.65-2.24-6.39-2.24s-5.64.91-8.46,2.73c-2.82,1.82-5.22,4.62-7.21,8.41-1.99,3.79-2.98,7.77-2.98,11.94,0,3.58.88,6.32,2.64,8.2s3.83,2.83,6.2,2.83c1,0,2.21-.26,3.64-.78l3.05-9.61c.51-1.61.76-2.67.76-3.17,0-.66-.31-1.22-.92-1.68-.62-.46-1.68-.68-3.19-.68l.29-1.02h17.18l-.26,1.02c-1.02.05-1.82.23-2.39.52-.58.3-1.03.73-1.36,1.3-.2.34-.5,1.22-.91,2.63l-3.61,11.2c-4.11,1.43-8.44,2.15-12.98,2.15-3.5,0-6.49-.58-8.94-1.75-2.46-1.16-4.49-3.01-6.11-5.53-1.62-2.52-2.42-5.4-2.42-8.62,0-6.88,3.34-12.54,10.01-17,5.23-3.46,11.16-5.18,17.8-5.18,1.15,0,2.22.05,3.2.16.72.09,2,.34,3.82.75,1.17.27,1.98.4,2.41.4.86,0,1.67-.44,2.44-1.32h1.09-.01Z"/>
  <path class="st0" d="M959.94,2.83l.32-.99h19.44l-.38.99c-1.76,0-3.11.36-4.04,1.07-.93.72-1.75,2.21-2.45,4.49l-7.28,23.31c-.53,1.65-.79,2.75-.79,3.3,0,.64.27,1.15.82,1.5.7.47,2.04.72,3.99.75l-.29.99h-19.76l.32-.99c1.98,0,3.43-.34,4.35-1.03s1.75-2.2,2.5-4.53l7.34-23.31c.45-1.43.68-2.52.68-3.25,0-.66-.27-1.18-.82-1.56s-1.86-.63-3.94-.75h-.01Z"/>
  <path class="st0" d="M996.47,1.83l12.45,24.28,5.61-17.62c.29-.97.44-1.83.44-2.58,0-.9-.31-1.61-.92-2.15-.62-.54-1.68-.85-3.19-.94l.32-.99h12.63l-.29.99c-1.6.09-2.93.5-3.98,1.23s-1.93,2.21-2.66,4.43l-9.72,30.16h-1.12l-15.97-31.04-7.72,24.2c-.26.84-.38,1.59-.38,2.26,0,.97.35,1.74,1.04,2.32.7.58,1.81.87,3.33.87l-.26.99h-12.98l.26-.99c1.12,0,1.91-.09,2.38-.27.82-.29,1.63-.84,2.41-1.65s1.42-1.99,1.91-3.53l8.43-26.45c-1.04-1.06-1.91-1.74-2.61-2.04s-1.76-.47-3.17-.48l.32-.99h13.45-.01Z"/>
  <path class="st0" d="M1061.8,1l-2.94,11.57h-1.14c-.14-3.15-.98-5.5-2.54-7.05-1.56-1.55-3.59-2.32-6.09-2.32-2.7,0-5.39,1.06-8.07,3.17-2.68,2.11-4.95,5.34-6.81,9.7-1.51,3.53-2.26,7.01-2.26,10.45,0,3.08.83,5.43,2.48,7.05s3.92,2.43,6.8,2.43c2.33,0,4.45-.47,6.37-1.4s3.86-2.44,5.81-4.54h1.41c-2.43,3.33-4.88,5.67-7.36,7.01s-5.51,2.01-9.09,2.01c-4.8,0-8.66-1.33-11.58-3.99-2.93-2.66-4.39-6.13-4.39-10.41,0-4.01,1.16-7.84,3.49-11.48,2.33-3.64,5.68-6.59,10.06-8.83,4.38-2.25,8.73-3.37,13.05-3.37,1.64,0,3.69.32,6.14.97,1.25.32,2.12.48,2.61.48.98,0,1.97-.48,2.97-1.45h1.09-.01Z"/>
  <path class="st0" d="M1062.6,30.19c1.35,0,2.5.43,3.43,1.29.93.86,1.41,1.9,1.41,3.12s-.48,2.26-1.42,3.12-2.09,1.29-3.42,1.29-2.47-.43-3.41-1.29-1.41-1.9-1.41-3.12.47-2.26,1.41-3.12,2.07-1.29,3.41-1.29Z"/>
</svg>