<?xml version="1.0" encoding="UTF-8"?>
<svg id="Layer_1" xmlns="http://www.w3.org/2000/svg" version="1.1" viewBox="0 0 1280 1024">
  <!-- Generator: Adobe Illustrator 29.7.1, SVG Export Plug-In . SVG Version: 2.1.1 Build 8)  -->
  <defs>
    <style>
      .st0 {
        fill: none;
        stroke-width: 7px;
      }

      .st0, .st1 {
        stroke: #fff;
        stroke-miterlimit: 10;
      }

      .st1 {
        display: none;
        fill: #fff;
      }
    </style>
  </defs>
  <path class="st1" d="M1482.55-155.37v1309.6H-202.55V-155.37h1685.1ZM91,19.67c-14.91-6.46-51.24,3.23-64.11,13.37-17.86,14.09-17.85,42.53-1.01,57.59,18.87,16.88,32.02,2.12,41.13,31.85,7.11,23.19,11.62,50.05,18.19,73.66,72.57,260.8,142.93,522.27,213.81,783.52l9.14.29c5.1-4.87-17.38-72.32-20.55-84.25-46.31-174.47-93.33-349.18-140.56-523.55-18.67-68.94-40.5-137.36-55.38-207.18,4.35,3.28,8.28,11.5,10.56,16.49,95.34,208.23,155.55,438.94,213.62,660.06,7.74,29.46,17.85,82.29,28.8,107.79,1.18,2.74,2.13,5.24,4.7,7.03l5.47-14.64c-68.09-251.48-129.65-516.87-236.87-754.78-9.68-21.48-31.24-52.58-37.49-73.19-.95-3.12-1.12-6.64-.37-9.81l32.53-7.04c1.42,9.92,10.46,16.98,15.83,25.35,60.73,94.7,111.24,244.63,146.08,353.14,47.38,147.54,69.89,288.37,100.16,439.15.94,4.66,4.63,24.36,7.62,25.35l7.14-2.27-17.57-113.96c1.64-5.13,40.83-11.92,48.35-13.03,112.67-16.62,221.45,1.51,328.57,26.28,61.14,14.13,85.71,11.54,145.94-7.85,103.7-33.38,182.53-60.1,296.57-41.67,21.93,3.54,44.9,10.82,66.57,16.06l10.25-6.04c-32.15-60.73-40.45-132.26-46.79-200.24-3.64-39.13-.25-78.52-12.46-117.07-19.48-61.51-59.75-71.76-97.03-117.24-54.46-66.44-67.37-135.71-64.79-220.36.59-19.42,9.73-20.24-15.85-26.34-51.51-12.27-172.21,28.66-230.63,38.75-105.53,18.23-182.23,17.52-282.35-22.26-88.15-35.03-249.15-36.37-342.4-11.79-6.97,1.84-19.28,4.83-21.89,11.19l-4.52.03-29.16-41.73c21.46-36.93,8.61-52.79-26.81-66.87-1.6-.63-1.82-3.54-2.44-3.8Z"/>
  <path class="st0" d="M91,19.67c.62.27.84,3.17,2.44,3.8,35.43,14.08,48.28,29.95,26.81,66.87l29.16,41.73,4.52-.03c2.61-6.36,14.91-9.35,21.89-11.19,93.25-24.58,254.25-23.24,342.4,11.79,100.12,39.79,176.83,40.49,282.35,22.26,58.42-10.09,179.12-51.02,230.63-38.75,25.58,6.09,16.44,6.92,15.85,26.34-2.57,84.64,10.33,153.91,64.79,220.36,37.28,45.48,77.55,55.73,97.03,117.24,12.21,38.56,8.82,77.95,12.46,117.07,6.33,67.99,14.64,139.52,46.79,200.24l-10.25,6.04c-21.66-5.24-44.64-12.51-66.57-16.06-114.04-18.43-192.87,8.29-296.57,41.67-60.23,19.39-84.8,21.98-145.94,7.85-107.12-24.76-215.9-42.89-328.57-26.28-7.51,1.11-46.7,7.9-48.35,13.03l17.57,113.96-7.14,2.27c-3-.99-6.69-20.68-7.62-25.35-30.27-150.78-52.78-291.61-100.16-439.15-34.85-108.52-85.35-258.44-146.08-353.14-5.37-8.38-14.41-15.43-15.83-25.35l-32.53,7.04c-.76,3.17-.58,6.69.37,9.81,6.25,20.6,27.81,51.71,37.49,73.19,107.22,237.9,168.78,503.3,236.87,754.78l-5.47,14.64c-2.57-1.79-3.52-4.29-4.7-7.03-10.96-25.49-21.07-78.33-28.8-107.79-58.07-221.12-118.28-451.83-213.62-660.06-2.28-4.99-6.21-13.21-10.56-16.49,14.89,69.82,36.71,138.23,55.38,207.18,47.23,174.37,94.25,349.09,140.56,523.55,3.17,11.93,25.65,79.39,20.55,84.25l-9.14-.29C228.13,718.4,157.77,456.94,85.2,196.14c-6.57-23.61-11.08-50.47-18.19-73.66-9.11-29.73-22.26-14.97-41.13-31.85-16.84-15.06-16.85-43.5,1.01-57.59,12.86-10.15,49.2-19.84,64.11-13.37ZM62.87,33.74c-58.73,6.51-43.82,63.36,15.92,58.29,26.46-2.24,55.09-25.75,27.01-48.42-11.98-9.67-28.04-11.52-42.93-9.87ZM469.83,128.08c-77.14-19.61-197.22-15.61-271.77,3.69-11.8,3.06-24.26,4.19-35.82,8.44l-1.96,6.53,50.5,117.03c5.62-2.57,15.78-3.05,20.31-4.73,55.75-20.72,121.25-20.52,181.77-13.96,82.93,8.99,158.34,45.5,244.8,45.75,80.56.23,158.38-21.96,233.59-36.19,48.38-9.16,103.14-14.24,151.19-2.53,1.67-1.94-6.53-43.31-7.02-50.66-1.39-20.84,2.59-46.23.13-66.02-1.1-8.86-19.91-10.7-27.18-10.7-17.91,0-40.01,6.59-58.24,10.24-122.83,24.57-245.89,62.45-371.79,31.65-37.11-9.08-73.38-29.62-108.5-38.55ZM427.54,255.23c-59.11-11.54-144.76-8.97-199.91,11.68-3.93,1.47-7.78,2.93-11.29,5.29l43.8,113.79c11.63-4.7,22.67-10.05,35.72-13.11,154.96-36.4,284.88,65.66,437.21,67.76l366.43-56.79,6.59-5.77c-20.63-25.94-36.91-51.35-49.97-81.94-3.02-7.07-8.2-28.95-11.05-33.19-2.38-3.53-17.71-2.65-22.1-3.88-1.95-.55-1.53-4.1-3.33-4.53-30.87-7.47-63.68.63-91.32,4.65-117.54,17.11-240.58,56-359.5,30.02-46.67-10.19-96.52-25.23-141.27-33.97ZM444.01,380.07c-40.98-15.38-109.31-7.92-148.49,4.33-10.52,3.29-21.68,5.16-32.02,9.13l36.68,124.88c15.03,1.91,28.13-4.3,42.32-6.96,59.23-11.11,116.78-9.26,175.98.07,87.42,13.78,178.71,48.17,266.36,44.56,127.25-5.24,260.48-49.4,385.96-42.61,5.56.3,32.78,5.98,34.02,4.79-2.19-12.45-4.28-25.57-8.32-37.58-15.23-45.16-48.35-64.66-82.61-93.97-4.29.52-7.09,3.42-11.64,4.18-113.59,19.02-231.72,31.93-341.5,56.66-69.65,15.69-197.69-34.39-270.33-53.99-16.22-4.38-32.25-8.19-46.41-13.5ZM1214.27,647.8l-9.75-118.61c-1.6-4.9-25.77-7.77-31.75-8.26-137.06-11.25-286.85,49.31-428.13,42.19-56.86-2.86-103.95-21.49-158.17-32.49-76.01-15.41-166.96-24.74-243.58-11.77-12.28,2.08-24,8.43-37.08,6.48l36.64,129.47c14.55-7.72,28.59-9.23,44-12.27,11.23-2.21,25.29-6.73,33.95-8.81,6.1-1.46,48.65-1.23,56.2-.24,4.36.57,3.09,4.4,4.99,4.84,6.76,1.59,16.67-.84,24.9.6,126.62,22.21,250.65,96.32,379.42,58.23l328.37-49.38ZM698.27,697.94c-3.66-1.59-9.05-.4-13.68-1.7-93.64-26.27-183.49-65.39-283.29-50.6-20.2,2.99-40.36,12.17-60.2,16.32l28.9,137.14c.77,3.08,2.28,7.71,5.6,8.62,3.58.98,38.76-7.81,47-8.86,117.61-14.97,225.55,1.11,336.89,30.14,28.31,7.38,64.74,9.68,92.81-.04,97.16-33.65,193.09-66.01,299.56-58.62,32.02,2.22,63.97,11.91,95.34,16.44-12.88-43.2-28.12-86.46-30.6-131.88l-163.32,23.78c-109.7,10.75-248.47,65.49-355.01,19.26Z"/>
  <path class="st1" d="M1214.27,647.8l-328.37,49.38c-128.77,38.08-252.8-36.03-379.42-58.23-8.22-1.44-18.13.99-24.9-.6-1.9-.45-.63-4.27-4.99-4.84-7.55-.99-50.1-1.23-56.2.24-8.66,2.08-22.72,6.59-33.95,8.81-15.41,3.04-29.45,4.54-44,12.27l-36.64-129.47c13.09,1.95,24.8-4.4,37.08-6.48,76.62-12.97,167.58-3.64,243.58,11.77,54.22,10.99,101.31,29.62,158.17,32.49,141.28,7.11,291.07-53.44,428.13-42.19,5.99.49,30.15,3.36,31.75,8.26l9.75,118.61Z"/>
  <path class="st1" d="M427.54,255.23c44.75,8.74,94.6,23.78,141.27,33.97,118.91,25.97,241.96-12.91,359.5-30.02,27.64-4.02,60.45-12.12,91.32-4.65,1.8.44,1.37,3.99,3.33,4.53,4.39,1.23,19.72.35,22.1,3.88,2.86,4.24,8.03,26.12,11.05,33.19,13.07,30.59,29.34,56,49.97,81.94l-6.59,5.77-366.43,56.79c-152.33-2.11-282.24-104.17-437.21-67.76-13.05,3.06-24.09,8.41-35.72,13.11l-43.8-113.79c3.51-2.36,7.36-3.82,11.29-5.29,55.14-20.65,140.8-23.23,199.91-11.68Z"/>
  <path class="st1" d="M444.01,380.07c14.17,5.32,30.19,9.13,46.41,13.5,72.64,19.6,200.69,69.68,270.33,53.99,109.77-24.74,227.9-37.64,341.5-56.66,4.54-.76,7.34-3.67,11.64-4.18,34.27,29.31,67.39,48.81,82.61,93.97,4.05,12.01,6.13,25.12,8.32,37.58-1.24,1.19-28.46-4.49-34.02-4.79-125.48-6.8-258.7,37.37-385.96,42.61-87.65,3.61-178.94-30.78-266.36-44.56-59.2-9.33-116.75-11.18-175.98-.07-14.19,2.66-27.29,8.87-42.32,6.96l-36.68-124.88c10.33-3.97,21.5-5.84,32.02-9.13,39.18-12.25,107.51-19.71,148.49-4.33Z"/>
  <path class="st1" d="M698.27,697.94c106.53,46.23,245.31-8.51,355.01-19.26l163.32-23.78c2.48,45.42,17.71,88.68,30.6,131.88-31.37-4.54-63.32-14.22-95.34-16.44-106.47-7.39-202.4,24.98-299.56,58.62-28.07,9.72-64.49,7.43-92.81.04-111.34-29.03-219.28-45.12-336.89-30.14-8.23,1.05-43.41,9.84-47,8.86-3.32-.91-4.84-5.54-5.6-8.62l-28.9-137.14c19.84-4.14,40-13.32,60.2-16.32,99.8-14.78,189.64,24.34,283.29,50.6,4.63,1.3,10.03.11,13.68,1.7Z"/>
  <path class="st1" d="M469.83,128.08c35.12,8.93,71.39,29.47,108.5,38.55,125.9,30.8,248.97-7.08,371.79-31.65,18.24-3.65,40.34-10.23,58.24-10.24,7.27,0,26.08,1.84,27.18,10.7,2.46,19.79-1.52,45.17-.13,66.02.49,7.35,8.69,48.72,7.02,50.66-48.05-11.71-102.81-6.62-151.19,2.53-75.22,14.24-153.03,36.42-233.59,36.19-86.46-.24-161.87-36.76-244.8-45.75-60.52-6.56-126.02-6.76-181.77,13.96-4.53,1.68-14.7,2.16-20.31,4.73l-50.5-117.03,1.96-6.53c11.56-4.25,24.02-5.39,35.82-8.44,74.55-19.3,194.64-23.3,271.77-3.69Z"/>
  <path class="st1" d="M62.87,33.74c14.89-1.65,30.95.2,42.93,9.87,28.08,22.67-.55,46.18-27.01,48.42-59.75,5.07-74.65-51.79-15.92-58.29Z"/>
</svg>