<?xml version="1.0" encoding="UTF-8"?>
<svg version="1.1" xmlns="http://www.w3.org/2000/svg" width="1024" height="208">
<path d="M0 0 C5.19146548 -0.32475484 10.37687594 -0.55868719 15.57617188 -0.71411133 C17.33828781 -0.77895179 19.09971903 -0.86727698 20.859375 -0.98071289 C36.24487575 -1.94667757 36.24487575 -1.94667757 41.71875 2.74072266 C44.34287191 5.39916344 46.58731851 8.27052144 48.74998474 11.31080627 C50.79375398 14.0726303 53.14440909 16.50087529 55.5 19 C56.4065099 19.9868487 57.31164098 20.97496734 58.21484375 21.96484375 C61.65411495 25.71688703 65.11000252 29.45357473 68.56787109 33.18847656 C71.03246083 35.85407607 73.48404357 38.52976386 75.91015625 41.23046875 C76.3683374 41.73956787 76.82651855 42.24866699 77.29858398 42.77319336 C78.54795643 44.16422114 79.79363274 45.55856611 81.0390625 46.953125 C82.83525564 49.05783305 82.83525564 49.05783305 85 50 C85.10183594 49.07058594 85.20367187 48.14117187 85.30859375 47.18359375 C86.04768162 42.00997867 87.58852538 37.06580595 89.0625 32.0625 C89.34416016 31.09248047 89.62582031 30.12246094 89.91601562 29.12304688 C90.60646466 26.74743409 91.30122001 24.37317295 92 22 C91.38866211 21.70109863 90.77732422 21.40219727 90.14746094 21.09423828 C87.7133909 19.85395839 85.5121993 18.40531129 83.25 16.875 C82.45078125 16.33617188 81.6515625 15.79734375 80.828125 15.2421875 C80.22484375 14.83226562 79.6215625 14.42234375 79 14 C79.5381244 8.79813078 80.30119563 5.09641312 82 0 C120.61 0 159.22 0 199 0 C199 10 199 10 197.03125 12.9453125 C196.1959375 13.66460937 195.360625 14.38390625 194.5 15.125 C193.6646875 15.87007812 192.829375 16.61515625 191.96875 17.3828125 C191.3190625 17.91648437 190.669375 18.45015625 190 19 C191.98 21.31 193.96 23.62 196 26 C199.66771845 24.16614077 201.46834996 22.74937171 204.25 19.875 C204.95640625 19.15054688 205.6628125 18.42609375 206.390625 17.6796875 C207.18726563 16.84824219 207.18726563 16.84824219 208 16 C207.01 14.68 206.02 13.36 205 12 C205 8.04 205 4.08 205 0 C239.32 0 273.64 0 309 0 C309 11 309 11 306 15.1875 C304.515 16.5796875 304.515 16.5796875 303 18 C304.98 19.98 306.96 21.96 309 24 C312.21043882 22.61811547 314.04936365 21.07578097 316.25 18.375 C316.77078125 17.74335937 317.2915625 17.11171875 317.828125 16.4609375 C318.21484375 15.97882812 318.6015625 15.49671875 319 15 C318.34 14.566875 317.68 14.13375 317 13.6875 C315 11 315 11 315 0 C332.49 0 349.98 0 368 0 C368 4.29 368 8.58 368 13 C366.27716797 12.93425781 366.27716797 12.93425781 364.51953125 12.8671875 C353.09068407 12.75725911 346.91503046 14.83110869 338.6015625 22.56103516 C335.77553981 25.10014762 332.71975411 27.34035694 329.6875 29.625 C328.58627427 30.47009777 327.48591917 31.31633212 326.38671875 32.1640625 C325.59910156 32.76992187 324.81148437 33.37578125 324 34 C325.28923981 36.78823237 326.68619531 38.98996602 328.72265625 41.28515625 C329.52401001 42.1968457 329.52401001 42.1968457 330.34155273 43.12695312 C330.90946533 43.76568359 331.47737793 44.40441406 332.0625 45.0625 C333.24339274 46.40649406 334.42307376 47.75155373 335.6015625 49.09765625 C336.18067383 49.75910645 336.75978516 50.42055664 337.35644531 51.10205078 C339.60185117 53.69500757 341.77406985 56.3381687 343.9375 59 C344.99904297 60.29550781 344.99904297 60.29550781 346.08203125 61.6171875 C347.29347547 63.1222404 348.48190882 64.64637889 349.63671875 66.1953125 C352.37089058 69.74040668 353.34159574 70.84070865 357.875 71.9375 C358.90625 71.958125 359.9375 71.97875 361 72 C361 76.29 361 80.58 361 85 C341.2 85 321.4 85 301 85 C301 76 301 76 302.53125 73.58984375 C303.1809375 73.04457031 303.830625 72.49929687 304.5 71.9375 C305.1496875 71.36902344 305.799375 70.80054687 306.46875 70.21484375 C306.9740625 69.81394531 307.479375 69.41304688 308 69 C307.043419 67.22821947 306.08467012 65.45760924 305.125 63.6875 C304.59132813 62.70136719 304.05765625 61.71523437 303.5078125 60.69921875 C301.99277874 57.90413542 301.99277874 57.90413542 300 55 C295.12819376 57.12559171 295.12819376 57.12559171 292.09375 61.20703125 C291.4873217 63.86813439 291.00873278 66.26663956 291 69 C292.64488294 70.68816933 294.31337542 72.35353315 296 74 C296.51264495 77.70065572 296.43548793 81.29213136 296 85 C294.2817691 86.7182309 292.01402251 86.12754321 289.66992188 86.12939453 C288.53204224 86.13254669 287.3941626 86.13569885 286.22180176 86.13894653 C284.98329468 86.1369223 283.7447876 86.13489807 282.46875 86.1328125 C281.20736206 86.13376923 279.94597412 86.13472595 278.6463623 86.13571167 C275.97302862 86.13639375 273.29978563 86.13503529 270.62646484 86.13037109 C267.19293309 86.12467381 263.7594795 86.12795301 260.32595062 86.13394356 C257.06104757 86.13841762 253.79615407 86.13528883 250.53125 86.1328125 C249.29274292 86.13483673 248.05423584 86.13686096 246.77819824 86.13894653 C245.6403186 86.13579437 244.50243896 86.13264221 243.33007812 86.12939453 C242.32271606 86.12859894 241.315354 86.12780334 240.27746582 86.12698364 C238 86 238 86 237 85 C236.46439292 81.59506931 236.20814758 79.10528146 238.28417969 76.20751953 C240.07499258 74.3885492 241.9323586 72.71811708 243.875 71.0625 C244.52597656 70.47404297 245.17695312 69.88558594 245.84765625 69.27929688 C250.66869919 65 250.66869919 65 253 65 C253.16435547 63.54207031 253.16435547 63.54207031 253.33203125 62.0546875 C253.40800537 61.40081055 253.48397949 60.74693359 253.56225586 60.07324219 C253.73193984 58.58267192 253.89262651 57.09105503 254.04516602 55.59863281 C254.52849563 51.12271864 255.23107498 46.81499752 256.2578125 42.4296875 C258.65289808 32.98792123 258.65289808 32.98792123 256.921875 23.74072266 C253.67417054 19.22278116 249.77470422 15.82014693 245 13 C240.47655522 13.50753248 237.69988467 16.58233353 234.4375 19.5 C233.17667333 20.6051852 231.91494585 21.70934354 230.65234375 22.8125 C230.03085449 23.35777344 229.40936523 23.90304688 228.76904297 24.46484375 C226.38880784 26.53038591 223.95080271 28.51896482 221.5 30.5 C209.08144957 39.01846372 209.08144957 39.01846372 200.70288086 49.94946289 C200.58505249 51.1984436 200.58505249 51.1984436 200.46484375 52.47265625 C200.33432617 53.82133789 200.33432617 53.82133789 200.20117188 55.19726562 C200.0706543 56.61555664 200.0706543 56.61555664 199.9375 58.0625 C199.84662109 59.01189453 199.75574219 59.96128906 199.66210938 60.93945312 C199.43743771 63.29259322 199.21821423 65.6462523 199 68 C203.29 69.98 207.58 71.96 212 74 C212.09765625 82.49609375 212.09765625 82.49609375 212 85 C211 86 211 86 207.84263611 86.08229065 C206.40926818 86.06733131 204.97595391 86.04665197 203.54272461 86.02172852 C202.76229294 86.01212097 201.98186127 86.00251343 201.17778015 85.99261475 C198.58587956 85.95950792 195.99414146 85.91922048 193.40234375 85.87890625 C191.61015911 85.85461653 189.81796838 85.83077241 188.02577209 85.80735779 C183.29923588 85.74440252 178.57280694 85.67536852 173.84637451 85.60510254 C169.02719017 85.53452215 164.20792952 85.46964368 159.38867188 85.40429688 C149.9256974 85.27513715 140.46282639 85.13956072 131 85 C130.87426758 81.63183594 130.87426758 81.63183594 131 78 C133.01171875 75.890625 133.01171875 75.890625 135.6875 74.25 C136.55761719 73.69828125 137.42773438 73.1465625 138.32421875 72.578125 C141 71 141 71 143.53881836 69.76416016 C146.69304846 67.50322704 147.0787996 65.91311763 148.0546875 62.1953125 C148.35890625 61.05449219 148.663125 59.91367188 148.9765625 58.73828125 C149.42128906 56.94970703 149.42128906 56.94970703 149.875 55.125 C150.1946875 53.94035156 150.514375 52.75570312 150.84375 51.53515625 C152.95940066 44.29053077 152.95940066 44.29053077 152 37 C150.39327331 34.93582069 150.39327331 34.93582069 148.2890625 33.1171875 C147.53882813 32.42496094 146.78859375 31.73273438 146.015625 31.01953125 C144.83226562 29.95798828 144.83226562 29.95798828 143.625 28.875 C142.07542451 27.45583433 140.52594172 26.03656744 138.9765625 24.6171875 C138.28643066 23.99440918 137.59629883 23.37163086 136.88525391 22.72998047 C135 21 135 21 133.47802734 19.31201172 C130.824976 16.95695756 127.37863385 17.32100456 124 17.25 C123.29488281 17.188125 122.58976563 17.12625 121.86328125 17.0625 C115.29739779 16.9210447 111.37293488 20.10174093 106.51394653 24.22583008 C102.25407661 28.92664725 101.4150703 33.90381126 100.37109375 40.0234375 C100.0020266 41.85813095 100.0020266 41.85813095 99.62550354 43.72988892 C98.85447961 47.60483156 98.14435641 51.48789265 97.4375 55.375 C96.69212543 59.28127703 95.92142189 63.1825652 95.15309143 67.0843811 C94.68101765 69.50482919 94.22091419 71.92764911 93.77403259 74.35287476 C93.56943924 75.44476105 93.36484589 76.53664734 93.15405273 77.66162109 C92.89071388 79.10316055 92.89071388 79.10316055 92.62205505 80.57382202 C92 83 92 83 90 86 C87.45763598 86.35473063 85.16377152 86.51584751 82.61328125 86.5390625 C81.87804733 86.55141937 81.14281342 86.56377625 80.38529968 86.57650757 C78.82603931 86.59609702 77.26665482 86.60731002 75.70727539 86.61083984 C73.33720509 86.62485392 70.97251457 86.69204958 68.60351562 86.76171875 C57.67808019 86.92501222 57.67808019 86.92501222 53.60302734 84.67871094 C51.79403107 82.90054695 50.42526717 81.09516788 49 79 C47.86413711 77.68450384 46.71390802 76.38129672 45.55078125 75.08984375 C44.97408691 74.42194824 44.39739258 73.75405273 43.80322266 73.06591797 C40.68052819 69.4883062 37.43341951 66.02804392 34.1875 62.5625 C33.18686523 61.48452148 33.18686523 61.48452148 32.16601562 60.38476562 C31.52728516 59.70220703 30.88855469 59.01964844 30.23046875 58.31640625 C29.65707764 57.70224854 29.08368652 57.08809082 28.49291992 56.45532227 C27.04393525 54.89525725 27.04393525 54.89525725 25 54 C24.38786242 56.41254224 23.8102189 58.82537261 23.25 61.25 C23.07339844 61.93191406 22.89679688 62.61382812 22.71484375 63.31640625 C22.15669299 65.58430652 22.15669299 65.58430652 22 69 C23.86979167 71.13020833 23.86979167 71.13020833 26 73 C26.42578125 75.98046875 26.42578125 75.98046875 26.3125 79.1875 C26.27576172 80.78658203 26.27576172 80.78658203 26.23828125 82.41796875 C26 85 26 85 25 86 C22.20006403 86.10103255 19.42531356 86.13970088 16.625 86.1328125 C15.78533691 86.13376923 14.94567383 86.13472595 14.08056641 86.13571167 C12.30175705 86.13639348 10.52294523 86.13453917 8.74414062 86.13037109 C6.01166224 86.12502283 3.27934824 86.13031605 0.546875 86.13671875 C-1.1770837 86.13605797 -2.90104229 86.13477681 -4.625 86.1328125 C-5.44790527 86.13483673 -6.27081055 86.13686096 -7.11865234 86.13894653 C-12.88504946 86.11495054 -12.88504946 86.11495054 -14 85 C-14.38378906 81.72875977 -14.38378906 81.72875977 -14 78 C-11.79589844 75.62866211 -11.79589844 75.62866211 -8.859375 73.33984375 C-0.78385707 66.19746063 0.55412139 56.703516 2.75 46.5625 C3.18668607 44.7185882 3.62676877 42.87547737 4.0703125 41.03320312 C4.48220431 39.27414601 4.89116871 37.51440027 5.296875 35.75390625 C5.48626648 34.93410782 5.67565796 34.11430939 5.87078857 33.26966858 C6.03556702 32.50464523 6.20034546 31.73962189 6.37011719 30.95141602 C6.59015411 29.94861351 6.59015411 29.94861351 6.81463623 28.92555237 C7.02948005 26.69376231 6.71658894 25.11705994 6 23 C5.01035155 21.86779831 3.98584259 20.76558281 2.9375 19.6875 C-0.25739057 15.66889547 -0.36357226 12.15128544 -0.18359375 7.20703125 C-0.17034058 6.51275024 -0.1570874 5.81846924 -0.14343262 5.10314941 C-0.10903925 3.40177544 -0.05635984 1.70078802 0 0 Z " fill="#020166" transform="translate(288,46)"/>
<path d="M0 0 C2.41448176 3.29979174 2.17919595 5.3745898 1.7578125 9.34375 C1.9093905 12.21362676 3.01355881 13.44064994 4.875 15.5625 C6.1125 15.3459375 7.35 15.129375 8.625 14.90625 C32.16628782 11.02566619 55.38486632 10.60831543 77.82421875 19.4765625 C96.45415945 26.10796265 118.19966317 20.27155271 136.81079102 16.22680664 C137.82197998 16.00758545 138.83316895 15.78836426 139.875 15.5625 C140.75696045 15.37115479 141.6389209 15.17980957 142.54760742 14.98266602 C145.89990357 14.37747335 149.23126906 14.41788306 152.625 14.4375 C153.30949219 14.43363281 153.99398437 14.42976563 154.69921875 14.42578125 C159.74827939 14.43577939 159.74827939 14.43577939 160.875 15.5625 C161.03666618 18.02341847 161.1532113 20.47399044 161.25 22.9375 C162.063226 38.59601867 166.76298234 49.46872868 177.875 60.5625 C179.30017865 61.76475967 180.73683356 62.95362074 182.1875 64.125 C191.49431004 72.21063814 190.90283626 84.10303296 191.875 95.5625 C192.74061292 105.38665876 194.44682797 114.29108415 197.8515625 123.55078125 C198.875 126.5625 198.875 126.5625 198.875 129.5625 C195.08757538 129.10800905 191.31375573 128.62988218 187.54296875 128.05078125 C169.28981809 125.26238012 153.90919736 128.16084483 136.375 133.81640625 C124.92293291 137.30570794 114.28000209 137.65129154 102.6875 134.6875 C96.08318966 133.15516487 89.55803289 132.01024421 82.8125 131.3125 C82.06395752 131.23273926 81.31541504 131.15297852 80.54418945 131.07080078 C71.35304346 130.18924885 62.41469121 130.5577783 53.25 131.5625 C52.34121094 131.65789062 51.43242188 131.75328125 50.49609375 131.8515625 C48.28852957 132.08393768 46.08157739 132.32096489 43.875 132.5625 C44.0915625 133.41972656 44.308125 134.27695313 44.53125 135.16015625 C44.8096875 136.30355469 45.088125 137.44695312 45.375 138.625 C45.6534375 139.75035156 45.931875 140.87570313 46.21875 142.03515625 C46.88703494 145.62718778 46.98642858 148.9178568 46.875 152.5625 C44.60892948 153.59525341 42.33818061 154.61383551 40.0625 155.625 C39.09860352 156.06682617 39.09860352 156.06682617 38.11523438 156.51757812 C33.21484375 158.67578125 33.21484375 158.67578125 29.875 157.5625 C28.93423462 155.3966217 28.93423462 155.3966217 28.12353516 152.47290039 C27.81039871 151.36777603 27.49726227 150.26265167 27.17463684 149.1240387 C26.84114731 147.89845749 26.50765778 146.67287628 26.1640625 145.41015625 C25.80062584 144.11055851 25.43602845 142.8112849 25.07035828 141.51231384 C24.07442563 137.96296156 23.09375815 134.40954693 22.11551285 130.85528564 C21.08620545 127.12563238 20.04316902 123.39982904 19.00073242 119.67382812 C17.68225047 114.95861607 16.36485744 110.24311529 15.05308533 105.52603149 C11.73137814 93.58605305 8.35310785 81.66288237 4.94921875 69.74609375 C4.46068642 68.03427975 3.97220142 66.32245224 3.48376465 64.61061096 C1.57987803 57.93903549 -0.32429884 51.26754602 -2.2333374 44.59744263 C-3.35155843 40.68948439 -4.46590146 36.78043964 -5.57744408 32.87057686 C-5.98829534 31.4280609 -6.40056355 29.98594767 -6.81432533 28.54426384 C-7.37941798 26.57481172 -7.93924248 24.60385027 -8.4987793 22.6328125 C-8.81453415 21.52695801 -9.130289 20.42110352 -9.45561218 19.28173828 C-10.125 16.5625 -10.125 16.5625 -10.125 13.5625 C-11.053125 13.315 -11.98125 13.0675 -12.9375 12.8125 C-16.35330758 11.47296761 -17.57051574 10.85434902 -19.125 7.5625 C-19.125 4.5 -19.125 4.5 -18.125 1.5625 C-13.31303386 -3.09424143 -5.74339325 -2.6419609 0 0 Z M38.875 105.5625 C39.875 108.5625 39.875 108.5625 39.875 108.5625 Z M39.875 109.5625 C40.875 112.5625 40.875 112.5625 40.875 112.5625 Z M40.875 113.5625 C41.875 116.5625 41.875 116.5625 41.875 116.5625 Z M41.875 117.5625 C42.875 121.5625 42.875 121.5625 42.875 121.5625 Z M42.875 121.5625 C42.875 123.2125 42.875 124.8625 42.875 126.5625 C43.205 126.5625 43.535 126.5625 43.875 126.5625 C43.875 124.9125 43.875 123.2625 43.875 121.5625 C43.545 121.5625 43.215 121.5625 42.875 121.5625 Z M43.875 126.5625 C44.875 129.5625 44.875 129.5625 44.875 129.5625 Z " fill="#FC0404" transform="translate(64.125,9.4375)"/>
<path d="M0 0 C0.89182983 -0.00281982 1.78365967 -0.00563965 2.70251465 -0.00854492 C4.18153259 -0.00550858 4.18153259 -0.00550858 5.69042969 -0.00241089 C6.7228479 -0.00416321 7.75526611 -0.00591553 8.81896973 -0.00772095 C12.25009821 -0.01214168 15.68117563 -0.00920069 19.11230469 -0.00582886 C21.48502614 -0.00650183 23.85774753 -0.0074718 26.23046875 -0.00872803 C31.21061864 -0.0102053 36.19075063 -0.00804949 41.17089844 -0.00338745 C47.57059148 0.00230985 53.97024258 -0.000969 60.36993408 -0.00695992 C65.27165038 -0.01056473 70.17335665 -0.00942731 75.07507324 -0.00683212 C77.43550623 -0.00616263 79.79594012 -0.00699204 82.15637207 -0.00931168 C85.44899931 -0.0118369 88.74155761 -0.00799944 92.03417969 -0.00241089 C93.02019165 -0.00443512 94.00620361 -0.00645935 95.02209473 -0.00854492 C95.91392456 -0.0057251 96.80575439 -0.00290527 97.72460938 0 C98.50406921 0.00037703 99.28352905 0.00075405 100.08660889 0.0011425 C101.86230469 0.12698364 101.86230469 0.12698364 102.86230469 1.12698364 C102.86230469 7.06698364 102.86230469 13.00698364 102.86230469 19.12698364 C87.02230469 19.12698364 71.18230469 19.12698364 54.86230469 19.12698364 C55.38706736 29.15650089 55.38706736 29.15650089 60.92480469 35.66213989 C67.63444535 39.00803783 75.55613235 37.91917541 82.86230469 37.62698364 C84.60831687 37.58680819 86.35441787 37.55031454 88.10058594 37.51760864 C92.35848646 37.43673684 96.60395753 37.28028414 100.86230469 37.12698364 C100.86230469 43.06698364 100.86230469 49.00698364 100.86230469 55.12698364 C94.92230469 55.12698364 88.98230469 55.12698364 82.86230469 55.12698364 C83.62651991 62.8514415 83.62651991 62.8514415 87.45996094 68.39651489 C88.17861328 69.30465942 88.89726563 70.21280396 89.63769531 71.14846802 C90.39244141 72.06950317 91.1471875 72.99053833 91.92480469 73.93948364 C93.42184949 75.79520868 94.9130517 77.65566716 96.39746094 79.52151489 C97.06140869 80.33467163 97.72535645 81.14782837 98.40942383 81.98562622 C99.86230469 84.12698364 99.86230469 84.12698364 99.86230469 87.12698364 C92.41441228 87.57078096 84.96790933 87.90649381 77.50974083 88.11141491 C74.04368322 88.20990077 70.58676477 88.34278974 67.12597656 88.56033325 C44.91730086 89.91972008 44.91730086 89.91972008 38.28921509 85.3548584 C33.89770488 80.95421507 30.88265301 75.88360106 28.05090332 70.3840332 C26.59172909 67.61318317 24.8262272 65.20388006 22.88964844 62.74807739 C7.75350541 42.26025176 7.75350541 42.26025176 1.26660156 33.0395813 C-0.09286124 31.12593539 -0.09286124 31.12593539 -1.60449219 29.47610474 C-6.11648008 24.17435942 -5.75587186 18.97707293 -5.51269531 12.25198364 C-5.49851562 11.19495239 -5.48433594 10.13792114 -5.46972656 9.04885864 C-5.29531209 0.00256135 -5.29531209 0.00256135 0 0 Z " fill="#020166" transform="translate(696.1376953125,45.873016357421875)"/>
<path d="M0 0 C2.41448176 3.29979174 2.17919595 5.3745898 1.7578125 9.34375 C1.9093905 12.21362676 3.01355881 13.44064994 4.875 15.5625 C5.63683594 15.418125 6.39867188 15.27375 7.18359375 15.125 C13.52747896 13.98452626 19.43270944 13.34775698 25.875 13.5625 C25.875 14.2225 25.875 14.8825 25.875 15.5625 C26.67083496 15.55202637 27.46666992 15.54155273 28.28662109 15.53076172 C31.94104777 15.48883003 35.59542357 15.46305648 39.25 15.4375 C41.12751953 15.41236328 41.12751953 15.41236328 43.04296875 15.38671875 C52.80340769 15.33561698 61.16102009 16.39681787 70.28881836 19.82226562 C91.21300351 27.63941376 111.85074531 24.01614829 133.13134766 19.32324219 C141.34321032 17.55641923 149.45176696 16.39523012 157.875 16.5625 C159.49280157 18.18030157 159.09772147 20.01885518 159.19140625 22.25390625 C159.25424805 23.67026367 159.25424805 23.67026367 159.31835938 25.11523438 C159.35767578 26.10845703 159.39699219 27.10167969 159.4375 28.125 C159.48068359 29.12208984 159.52386719 30.11917969 159.56835938 31.14648438 C159.67480298 33.6183415 159.77681928 36.0903031 159.875 38.5625 C158.86824219 38.52769531 157.86148438 38.49289063 156.82421875 38.45703125 C144.76395641 38.173756 133.41294552 39.74206377 121.58789062 41.99902344 C102.47206769 45.64209946 83.91694736 46.48782493 65.15625 40.80859375 C49.08561062 35.94643474 31.92625103 36.13456868 15.875 40.5625 C13.895 36.2725 11.915 31.9825 9.875 27.5625 C11.6562058 33.08423797 13.59927158 38.47538276 15.77954102 43.85083008 C26.67883717 70.83065676 34.79218473 98.13753778 40.875 126.5625 C41.1136377 127.66190918 41.35227539 128.76131836 41.59814453 129.89404297 C42.20302786 132.69776503 42.79496735 135.5035419 43.375 138.3125 C43.61561157 139.4722937 43.61561157 139.4722937 43.86108398 140.65551758 C44.65086166 144.68058442 45.0297382 148.46193762 44.875 152.5625 C42.94391037 153.59540841 41.004882 154.61348672 39.0625 155.625 C37.44408203 156.47771484 37.44408203 156.47771484 35.79296875 157.34765625 C32.875 158.5625 32.875 158.5625 29.875 157.5625 C28.93423462 155.3966217 28.93423462 155.3966217 28.12353516 152.47290039 C27.81039871 151.36777603 27.49726227 150.26265167 27.17463684 149.1240387 C26.84114731 147.89845749 26.50765778 146.67287628 26.1640625 145.41015625 C25.80062584 144.11055851 25.43602845 142.8112849 25.07035828 141.51231384 C24.07442563 137.96296156 23.09375815 134.40954693 22.11551285 130.85528564 C21.08620545 127.12563238 20.04316902 123.39982904 19.00073242 119.67382812 C17.68225047 114.95861607 16.36485744 110.24311529 15.05308533 105.52603149 C11.73137814 93.58605305 8.35310785 81.66288237 4.94921875 69.74609375 C4.46068642 68.03427975 3.97220142 66.32245224 3.48376465 64.61061096 C1.57987803 57.93903549 -0.32429884 51.26754602 -2.2333374 44.59744263 C-3.35155843 40.68948439 -4.46590146 36.78043964 -5.57744408 32.87057686 C-5.98829534 31.4280609 -6.40056355 29.98594767 -6.81432533 28.54426384 C-7.37941798 26.57481172 -7.93924248 24.60385027 -8.4987793 22.6328125 C-8.81453415 21.52695801 -9.130289 20.42110352 -9.45561218 19.28173828 C-10.125 16.5625 -10.125 16.5625 -10.125 13.5625 C-11.053125 13.315 -11.98125 13.0675 -12.9375 12.8125 C-16.35330758 11.47296761 -17.57051574 10.85434902 -19.125 7.5625 C-19.125 4.5 -19.125 4.5 -18.125 1.5625 C-13.31303386 -3.09424143 -5.74339325 -2.6419609 0 0 Z " fill="#FDFCFC" transform="translate(64.125,9.4375)"/>
<path d="M0 0 C18.01923935 -0.46582947 34.07353561 0.24463084 50.94921875 6.9140625 C69.57915945 13.54546265 91.32466317 7.70905271 109.93579102 3.66430664 C110.94697998 3.44508545 111.95816895 3.22586426 113 3 C113.88196045 2.80865479 114.7639209 2.61730957 115.67260742 2.42016602 C119.02490357 1.81497335 122.35626906 1.85538306 125.75 1.875 C126.43449219 1.87113281 127.11898437 1.86726563 127.82421875 1.86328125 C132.87327939 1.87327939 132.87327939 1.87327939 134 3 C134.16166618 5.46091847 134.2782113 7.91149044 134.375 10.375 C135.188226 26.03351867 139.88798234 36.90622868 151 48 C152.42517865 49.20225967 153.86183356 50.39112074 155.3125 51.5625 C164.61931004 59.64813814 164.02783626 71.54053296 165 83 C165.86561292 92.82415876 167.57182797 101.72858415 170.9765625 110.98828125 C172 114 172 114 172 117 C168.21257538 116.54550905 164.43875573 116.06738218 160.66796875 115.48828125 C142.41481809 112.69988012 127.03419736 115.59834483 109.5 121.25390625 C98.04793291 124.74320794 87.40500209 125.08879154 75.8125 122.125 C69.20818966 120.59266487 62.68303289 119.44774421 55.9375 118.75 C54.81468628 118.63035889 54.81468628 118.63035889 53.66918945 118.50830078 C44.47804346 117.62674885 35.53969121 117.9952783 26.375 119 C25.46621094 119.09539062 24.55742188 119.19078125 23.62109375 119.2890625 C21.41352957 119.52143768 19.20657739 119.75846489 17 120 C17.2165625 120.85722656 17.433125 121.71445313 17.65625 122.59765625 C20.42179262 133.9543058 20.42179262 133.9543058 20 140 C19.34 140 18.68 140 18 140 C17.8548999 139.24831543 17.7097998 138.49663086 17.56030273 137.72216797 C11.24795763 105.18912326 4.6594977 72.77060194 -8 42 C-8.69188341 40.27545234 -9.38196506 38.55018082 -10.0703125 36.82421875 C-10.57884766 35.55288086 -10.57884766 35.55288086 -11.09765625 34.25585938 C-14.1953125 26.51171875 -14.1953125 26.51171875 -15.14990234 24.11547852 C-15.82837416 22.42709302 -16.52786398 20.74715828 -17.234375 19.0703125 C-18.14207014 16.61583075 -18.14833538 14.59586911 -18 12 C-16.01158588 14.98262118 -14.46328268 17.97640675 -12.875 21.1875 C-12.33617188 22.27417969 -11.79734375 23.36085938 -11.2421875 24.48046875 C-10.83226563 25.31191406 -10.42234375 26.14335938 -10 27 C-9.33097656 26.7834375 -8.66195312 26.566875 -7.97265625 26.34375 C9.11387695 21.38980212 28.98862631 23.43703002 45.6875 29.1875 C63.4367122 34.5246757 82.92175242 30.62665101 100.65625 27.19140625 C108.46531665 25.68283002 115.98807801 24.85885904 123.9375 24.875 C125.22527344 24.87242188 126.51304687 24.86984375 127.83984375 24.8671875 C131 25 131 25 133 26 C132.67 25.01 132.34 24.02 132 23 C131.85507877 21.59335074 131.75371069 20.1818867 131.68359375 18.76953125 C131.62075195 17.56586914 131.62075195 17.56586914 131.55664062 16.33789062 C131.51732422 15.50451172 131.47800781 14.67113281 131.4375 13.8125 C131.39431641 12.96751953 131.35113281 12.12253906 131.30664062 11.25195312 C131.20068482 9.16815567 131.0998498 7.08409897 131 5 C121.43744441 5.1546884 112.51893452 6.37152441 103.1875 8.4375 C79.16859284 13.69357941 59.63503468 14.62487187 36.45263672 5.74023438 C31.14069176 4.13702741 25.70776122 3.86154068 20.19140625 3.68359375 C18.95068359 3.64169922 17.70996094 3.59980469 16.43164062 3.55664062 C15.15482422 3.51732422 13.87800781 3.47800781 12.5625 3.4375 C11.25861328 3.39431641 9.95472656 3.35113281 8.61132812 3.30664062 C5.40764684 3.20102476 2.20389389 3.09891899 -1 3 C-0.67 2.01 -0.34 1.02 0 0 Z M-1 46 C-2.66613278 50.03910977 -1.12509608 53.14572018 0.3125 57 C3.71864594 66.64604654 6.46015179 76.45882251 9.1875 86.3125 C9.40314606 87.08650146 9.61879211 87.86050293 9.8409729 88.65795898 C12.45805393 98.06001427 14.90975898 107.46451956 17 117 C17.68425049 116.92297852 18.36850098 116.84595703 19.07348633 116.76660156 C40.72346508 114.44764356 62.52369062 115.80355659 83.5625 121.421875 C92.75014038 123.60099483 101.1933791 120.59969146 110 118 C129.28271083 112.32741417 148.08248692 109.38144624 168 114 C167.5227197 110.37266971 166.70715684 107.08383276 165.53125 103.63671875 C163.13525071 95.87152932 162.9276548 87.71107204 162.34326172 79.65063477 C162.18668329 77.54352969 162.01563361 75.43793462 161.84375 73.33203125 C161.70743164 71.47155151 161.70743164 71.47155151 161.56835938 69.57348633 C160.72064029 64.2435618 158.89225641 59.51969188 155.25 55.4375 C154.80140625 54.92058594 154.3528125 54.40367188 153.890625 53.87109375 C152.95476562 52.94490234 152.95476562 52.94490234 152 52 C151.52747803 51.47825195 151.05495605 50.95650391 150.56811523 50.41894531 C148.17198649 48.01272688 146.30801423 46.16138224 142.85302734 45.73510742 C140.36591087 45.94674866 138.00571852 46.36365023 135.5625 46.875 C134.65943115 47.03411865 133.7563623 47.1932373 132.82592773 47.35717773 C130.8892393 47.70023124 128.95506205 48.05771708 127.0234375 48.42822266 C121.8856451 49.3998562 116.7222611 50.21702364 111.5625 51.0625 C109.52847891 51.40134323 107.49461899 51.74115568 105.4609375 52.08203125 C104.04312988 52.31913818 104.04312988 52.31913818 102.59667969 52.56103516 C100.4089509 52.93086746 98.22395592 53.31314012 96.0390625 53.69921875 C92.6934029 54.24902994 89.37423582 54.66873941 86 55 C85.35482422 55.06799805 84.70964844 55.13599609 84.04492188 55.20605469 C70.24743531 56.4750112 58.08961599 52.99920584 44.9453125 49.04296875 C35.49856585 46.21330114 26.18461391 43.42780296 16.25 43.6875 C15.53336182 43.69587891 14.81672363 43.70425781 14.07836914 43.71289062 C8.80290796 43.8325563 4.05369995 44.52983274 -1 46 Z " fill="#FC0404" transform="translate(91,22)"/>
<path d="M0 0 C15.51 0 31.02 0 47 0 C47 28.71 47 57.42 47 87 C31.49 87 15.98 87 0 87 C0 58.29 0 29.58 0 0 Z " fill="#020166" transform="translate(920,46)"/>
<path d="M0 0 C1.12365967 0.32073486 1.12365967 0.32073486 2.27001953 0.64794922 C5.88780606 1.68874556 9.49627857 2.75543312 13.09765625 3.8515625 C14.39752391 4.23746578 15.69830716 4.62029878 17 5 C17.65145996 5.19126465 18.30291992 5.3825293 18.97412109 5.57958984 C23.85607494 6.91712785 28.44486208 7.38590292 33.5 7.375 C34.31476807 7.37338867 35.12953613 7.37177734 35.96899414 7.37011719 C44.63031478 7.20403866 52.98927328 5.70084965 61.4921875 4.15234375 C68.65618804 2.85070302 75.85241754 1.82242873 83.0625 0.8125 C84.24577881 0.64588867 85.42905762 0.47927734 86.64819336 0.30761719 C88.8337553 0.00072793 91.02047865 -0.29805132 93.20849609 -0.58691406 C95.90547969 -0.94366762 95.90547969 -0.94366762 98.13916016 -1.51464844 C99.91796875 -1.93359375 99.91796875 -1.93359375 103 -2 C105.48925519 -0.34252033 107.2040477 1.03686312 109.25 3.125 C109.765625 3.61226563 110.28125 4.09953125 110.8125 4.6015625 C116.64146444 10.25024968 118.13575192 14.19693255 119 22 C117.86554443 21.96519531 116.73108887 21.93039063 115.56225586 21.89453125 C104.17678114 21.65655682 93.43458607 22.70753093 82.21615601 24.5664978 C57.82126178 28.55165648 35.210214 30.38452186 11.12451172 23.58544922 C-4.22461 19.35570963 -21.31058313 20.14021235 -37 22 C-38.20502099 18.75622826 -39.38588782 15.50417311 -40.5625 12.25 C-40.90474609 11.32960938 -41.24699219 10.40921875 -41.59960938 9.4609375 C-41.91865234 8.57148437 -42.23769531 7.68203125 -42.56640625 6.765625 C-42.86490479 5.94868164 -43.16340332 5.13173828 -43.47094727 4.29003906 C-44.04922939 1.78690737 -43.83176958 0.40128262 -43 -2 C-28.40659732 -6.24535351 -14.2975197 -4.09928886 0 0 Z " fill="#FEFBFB" transform="translate(133,70)"/>
<path d="M0 0 C0.95672607 0.00281982 1.91345215 0.00563965 2.89916992 0.00854492 C16.1506862 0.30176347 28.36298351 4.29890998 40.8125 8.5 C58.41915763 14.3209766 76.33203701 11.04370918 94.1875 8.125 C96.21985434 7.80343523 98.25240634 7.48311713 100.28515625 7.1640625 C109.03389641 5.78392176 117.77680249 4.3754734 126.49462891 2.81005859 C128.95939764 2.48034969 131.32871075 2.4452715 133.8125 2.5 C134.00585938 3.52480469 134.19921875 4.54960938 134.3984375 5.60546875 C134.66119863 6.96619601 134.92423398 8.32687033 135.1875 9.6875 C135.31382812 10.36103516 135.44015625 11.03457031 135.5703125 11.72851562 C136.31187875 15.52904267 137.35239995 18.92592902 138.8125 22.5 C138.8125 23.49 138.8125 24.48 138.8125 25.5 C137.87857422 25.2834375 137.87857422 25.2834375 136.92578125 25.0625 C115.37396203 20.73410116 95.7457778 24.76518355 75.1484375 31.1953125 C67.00591839 33.69884617 59.92133105 34.47078419 51.625 32.1875 C30.98081671 26.69980571 9.95584021 26.57787816 -11.1875 28.5 C-13.1675 20.25 -15.1475 12 -17.1875 3.5 C-10.43934465 0.60793342 -6.97731955 -0.04621558 0 0 Z " fill="#FDFCFC" transform="translate(120.1875,110.5)"/>
<path d="M0 0 C2.41448176 3.29979174 2.17919595 5.3745898 1.7578125 9.34375 C1.9093905 12.21362676 3.01355881 13.44064994 4.875 15.5625 C5.63683594 15.418125 6.39867188 15.27375 7.18359375 15.125 C13.52747896 13.98452626 19.43270944 13.34775698 25.875 13.5625 C25.875 14.2225 25.875 14.8825 25.875 15.5625 C19.605 16.5525 13.335 17.5425 6.875 18.5625 C7.535 19.8825 8.195 21.2025 8.875 22.5625 C9.16830771 24.01274367 9.41505221 25.4728642 9.625 26.9375 C10.68125849 32.5901333 12.88829294 37.47729176 15.2265625 42.70703125 C17.35062224 47.54963609 19.04195592 52.53411099 20.76464844 57.5300293 C22.03840494 61.21446621 23.35975649 64.84349266 24.875 68.4375 C33.84705452 90.72055344 38.57084811 114.83981983 43.375 138.3125 C43.53500488 139.08456787 43.69500977 139.85663574 43.85986328 140.65209961 C44.65088655 144.67825222 45.02978628 148.46066367 44.875 152.5625 C42.94391037 153.59540841 41.004882 154.61348672 39.0625 155.625 C37.44408203 156.47771484 37.44408203 156.47771484 35.79296875 157.34765625 C32.875 158.5625 32.875 158.5625 29.875 157.5625 C28.93423462 155.3966217 28.93423462 155.3966217 28.12353516 152.47290039 C27.81039871 151.36777603 27.49726227 150.26265167 27.17463684 149.1240387 C26.84114731 147.89845749 26.50765778 146.67287628 26.1640625 145.41015625 C25.80062584 144.11055851 25.43602845 142.8112849 25.07035828 141.51231384 C24.07442563 137.96296156 23.09375815 134.40954693 22.11551285 130.85528564 C21.08620545 127.12563238 20.04316902 123.39982904 19.00073242 119.67382812 C17.68225047 114.95861607 16.36485744 110.24311529 15.05308533 105.52603149 C11.73137814 93.58605305 8.35310785 81.66288237 4.94921875 69.74609375 C4.46068642 68.03427975 3.97220142 66.32245224 3.48376465 64.61061096 C1.57987803 57.93903549 -0.32429884 51.26754602 -2.2333374 44.59744263 C-3.35155843 40.68948439 -4.46590146 36.78043964 -5.57744408 32.87057686 C-5.98829534 31.4280609 -6.40056355 29.98594767 -6.81432533 28.54426384 C-7.37941798 26.57481172 -7.93924248 24.60385027 -8.4987793 22.6328125 C-8.81453415 21.52695801 -9.130289 20.42110352 -9.45561218 19.28173828 C-10.125 16.5625 -10.125 16.5625 -10.125 13.5625 C-11.053125 13.315 -11.98125 13.0675 -12.9375 12.8125 C-16.35330758 11.47296761 -17.57051574 10.85434902 -19.125 7.5625 C-19.125 4.5 -19.125 4.5 -18.125 1.5625 C-13.31303386 -3.09424143 -5.74339325 -2.6419609 0 0 Z " fill="#0E0E0E" transform="translate(64.125,9.4375)"/>
<path d="M0 0 C15.51 0 31.02 0 47 0 C47 18.81 47 37.62 47 57 C31.49 57 15.98 57 0 57 C0 38.19 0 19.38 0 0 Z " fill="#020166" transform="translate(838,76)"/>
<path d="M0 0 C18.01923935 -0.46582947 34.07353561 0.24463084 50.94921875 6.9140625 C69.57915945 13.54546265 91.32466317 7.70905271 109.93579102 3.66430664 C110.94697998 3.44508545 111.95816895 3.22586426 113 3 C113.88196045 2.80865479 114.7639209 2.61730957 115.67260742 2.42016602 C119.02490357 1.81497335 122.35626906 1.85538306 125.75 1.875 C126.43449219 1.87113281 127.11898437 1.86726563 127.82421875 1.86328125 C132.87327939 1.87327939 132.87327939 1.87327939 134 3 C134.16166618 5.46091847 134.2782113 7.91149044 134.375 10.375 C135.188226 26.03351867 139.88798234 36.90622868 151 48 C152.42517865 49.20225967 153.86183356 50.39112074 155.3125 51.5625 C164.61931004 59.64813814 164.02783626 71.54053296 165 83 C165.86561292 92.82415876 167.57182797 101.72858415 170.9765625 110.98828125 C172 114 172 114 172 117 C168.21257538 116.54550905 164.43875573 116.06738218 160.66796875 115.48828125 C142.41481809 112.69988012 127.03419736 115.59834483 109.5 121.25390625 C98.04793291 124.74320794 87.40500209 125.08879154 75.8125 122.125 C69.20818966 120.59266487 62.68303289 119.44774421 55.9375 118.75 C54.81468628 118.63035889 54.81468628 118.63035889 53.66918945 118.50830078 C44.47804346 117.62674885 35.53969121 117.9952783 26.375 119 C25.46621094 119.09539062 24.55742188 119.19078125 23.62109375 119.2890625 C21.41352957 119.52143768 19.20657739 119.75846489 17 120 C17.2165625 120.85722656 17.433125 121.71445313 17.65625 122.59765625 C20.42179262 133.9543058 20.42179262 133.9543058 20 140 C19.34 140 18.68 140 18 140 C17.8548999 139.24831543 17.7097998 138.49663086 17.56030273 137.72216797 C11.24795763 105.18912326 4.6594977 72.77060194 -8 42 C-8.69188341 40.27545234 -9.38196506 38.55018082 -10.0703125 36.82421875 C-10.57884766 35.55288086 -10.57884766 35.55288086 -11.09765625 34.25585938 C-14.1953125 26.51171875 -14.1953125 26.51171875 -15.14990234 24.11547852 C-15.82837416 22.42709302 -16.52786398 20.74715828 -17.234375 19.0703125 C-18.14207014 16.61583075 -18.14833538 14.59586911 -18 12 C-16.30681345 14.53977983 -15.1628182 16.75162994 -13.9765625 19.53515625 C-13.595 20.42783203 -13.2134375 21.32050781 -12.8203125 22.24023438 C-12.42585938 23.17158203 -12.03140625 24.10292969 -11.625 25.0625 C-11.23828125 25.96677734 -10.8515625 26.87105469 -10.453125 27.80273438 C-8.20044351 33.09048841 -6.01677444 38.4011195 -3.90161133 43.74536133 C-2.9801902 46.04953791 -2.02367111 48.33716723 -1.0625 50.625 C3.51362105 62.14481052 6.68534675 74.23097489 10.125 86.125 C10.46176758 87.27983887 10.79853516 88.43467773 11.14550781 89.62451172 C17 110.05732644 17 110.05732644 17 117 C17.59941406 116.855625 18.19882813 116.71125 18.81640625 116.5625 C39.97247329 112.22896706 62.88717931 114.90062459 83.5625 120.421875 C92.75014038 122.60099483 101.1933791 119.59969146 110 117 C128.94954839 111.42542386 148.71018945 107.29050068 168 114 C167.67386719 113.21625 167.34773437 112.4325 167.01171875 111.625 C162.89342655 100.35132696 161.90137077 89.0688684 161.0769043 77.18554688 C161.02556839 76.50234879 160.97423248 75.8191507 160.92134094 75.11524963 C160.7820374 73.23704474 160.65879888 71.35766812 160.53662109 69.47827148 C159.20577504 60.85199133 154.5694494 55.11368633 148.0625 49.625 C139.73846465 42.45881919 132.8841258 32.07043691 131.79467773 20.89355469 C131.75802002 20.16040039 131.7213623 19.42724609 131.68359375 18.671875 C131.62075195 17.47304688 131.62075195 17.47304688 131.55664062 16.25 C131.51732422 15.425 131.47800781 14.6 131.4375 13.75 C131.39431641 12.90953125 131.35113281 12.0690625 131.30664062 11.203125 C131.20091457 9.13559329 131.09998705 7.06781719 131 5 C121.43744441 5.1546884 112.51893452 6.37152441 103.1875 8.4375 C79.16859284 13.69357941 59.63503468 14.62487187 36.45263672 5.74023438 C31.14069176 4.13702741 25.70776122 3.86154068 20.19140625 3.68359375 C18.95068359 3.64169922 17.70996094 3.59980469 16.43164062 3.55664062 C15.15482422 3.51732422 13.87800781 3.47800781 12.5625 3.4375 C11.25861328 3.39431641 9.95472656 3.35113281 8.61132812 3.30664062 C5.40764684 3.20102476 2.20389389 3.09891899 -1 3 C-0.67 2.01 -0.34 1.02 0 0 Z " fill="#0B0909" transform="translate(91,22)"/>
<path d="M0 0 C3.23046875 0.48828125 3.23046875 0.48828125 5.6171875 3.2578125 C6.41315396 4.58852355 7.1777591 5.93826733 7.91796875 7.30078125 C8.33731689 8.04416748 8.75666504 8.78755371 9.1887207 9.5534668 C18.56062556 26.80129982 25.17360881 45.84997069 31.23046875 64.48828125 C31.61420654 65.65987793 31.99794434 66.83147461 32.39331055 68.03857422 C35.50499956 77.67358485 38.0293794 87.37286031 40.29296875 97.23828125 C40.63924326 98.73081275 40.98559828 100.22332558 41.33203125 101.71582031 C43.216147 109.87154513 45.05463572 118.03689189 46.73046875 126.23828125 C46.89039307 127.01010742 47.05031738 127.78193359 47.21508789 128.57714844 C48.00634552 132.60353642 48.38526527 136.38617355 48.23046875 140.48828125 C46.25046875 141.47828125 46.25046875 141.47828125 44.23046875 142.48828125 C43.99448975 141.58400391 43.75851074 140.67972656 43.51538086 139.74804688 C31.19211286 92.61684694 18.05876052 45.25265883 -3.76953125 1.48828125 C-2.76953125 0.48828125 -2.76953125 0.48828125 0 0 Z " fill="#F6F6F6" transform="translate(60.76953125,21.51171875)"/>
<path d="M0 0 C-0.01047363 0.89831543 -0.02094727 1.79663086 -0.03173828 2.72216797 C-0.0657947 6.05064447 -0.09088618 9.37893622 -0.10986328 12.70751953 C-0.11992963 14.14895547 -0.1335838 15.59037095 -0.15087891 17.03173828 C-0.17510012 19.10193934 -0.18647641 21.17187076 -0.1953125 23.2421875 C-0.20578613 24.4885498 -0.21625977 25.73491211 -0.22705078 27.01904297 C-0.31652492 30.11771631 -0.31652492 30.11771631 2 32 C-3.28 32 -8.56 32 -14 32 C-12.68 30.68 -11.36 29.36 -10 28 C-9.19684346 24.85518209 -9.19684346 24.85518209 -9 22 C-13.94813173 22.11858268 -17.0925643 22.27775526 -21.0625 25.4375 C-23.20103609 27.73046572 -23.20103609 27.73046572 -23 30 C-22.34 30.66 -21.68 31.32 -21 32 C-28.26 32 -35.52 32 -43 32 C-44.32 27.71 -45.64 23.42 -47 19 C-47.495 20.258125 -47.99 21.51625 -48.5 22.8125 C-48.7784375 23.52019531 -49.056875 24.22789062 -49.34375 24.95703125 C-50.1529162 27.11841216 -50.1529162 27.11841216 -50 30 C-49.01 30.66 -48.02 31.32 -47 32 C-52.94 32 -58.88 32 -65 32 C-62 30 -62 30 -60 30 C-59.84144531 29.3915625 -59.68289063 28.783125 -59.51953125 28.15625 C-57.26581327 19.68924321 -54.65033196 11.34906944 -52 3 C-53.32 2.67 -54.64 2.34 -56 2 C-56 1.67 -56 1.34 -56 1 C-52.60445765 0.88339176 -49.20943321 0.81261628 -45.8125 0.75 C-44.85279297 0.71648437 -43.89308594 0.68296875 -42.90429688 0.6484375 C-38.45758644 0.58689133 -35.76763277 0.55165658 -31.86328125 2.83203125 C-30 5 -30 5 -29.375 7.9375 C-30.41526393 13.03479328 -33.83092704 15.22061803 -38 18 C-37.41022253 19.8172331 -36.80271547 21.62872043 -36.1875 23.4375 C-35.68283203 24.95150391 -35.68283203 24.95150391 -35.16796875 26.49609375 C-34.78253906 27.32238281 -34.39710938 28.14867187 -34 29 C-33.01 29.33 -32.02 29.66 -31 30 C-22.23142118 24.7177236 -15.01875477 14.58097229 -8.30078125 6.9375 C-7.50027344 6.03 -6.69976563 5.1225 -5.875 4.1875 C-4.81925781 2.97126953 -4.81925781 2.97126953 -3.7421875 1.73046875 C-2 0 -2 0 0 0 Z M-43 4 C-44.32 7.3 -45.64 10.6 -47 14 C-45.68 14.33 -44.36 14.66 -43 15 C-40.60549147 13.52311011 -40.60549147 13.52311011 -39 11 C-38.66551741 7.832168 -38.66551741 7.832168 -39 5 C-40.32 4.67 -41.64 4.34 -43 4 Z M-10.62890625 13.49609375 C-11.26699219 14.13675781 -11.90507813 14.77742187 -12.5625 15.4375 C-13.52349609 16.39462891 -13.52349609 16.39462891 -14.50390625 17.37109375 C-16.11274068 18.75413176 -16.11274068 18.75413176 -16 20 C-13.69 20 -11.38 20 -9 20 C-8.67 17.36 -8.34 14.72 -8 12 C-9.24586824 11.88725932 -9.24586824 11.88725932 -10.62890625 13.49609375 Z " fill="#020166" transform="translate(694,151)"/>
<path d="M0 0 C15.51 0 31.02 0 47 0 C47 6.27 47 12.54 47 19 C31.49 19 15.98 19 0 19 C0 12.73 0 6.46 0 0 Z " fill="#020166" transform="translate(838,48)"/>
<path d="M0 0 C3.39537852 -0.14575327 6.78994902 -0.23421542 10.1875 -0.3125 C11.14720703 -0.35439453 12.10691406 -0.39628906 13.09570312 -0.43945312 C20.23396895 -0.56295253 20.23396895 -0.56295253 24.16796875 2.328125 C26 5 26 5 26.125 8.0625 C24.52543325 12.23914651 21.92457017 14.03771492 18 16 C19.485 22.435 19.485 22.435 21 29 C23.31 29 25.62 29 28 29 C32.09944086 20.64928714 34.49937314 11.92641803 37 3 C36.01 2.01 35.02 1.02 34 0 C39.61 0 45.22 0 51 0 C49.02 0.99 49.02 0.99 47 2 C46.00484738 3.95244131 46.00484738 3.95244131 45.5 6.3125 C44.09545114 11.64357771 42.45773755 16.86920536 40.76953125 22.1171875 C39.82806194 25.14682086 39.82806194 25.14682086 40 29 C40.99 29.66 41.98 30.32 43 31 C33.1 31 23.2 31 13 31 C11.68 27.04 10.36 23.08 9 19 C6.67898016 22.48152976 6.30096799 24.86169011 6 29 C6.66 29.66 7.32 30.32 8 31 C2.39 31 -3.22 31 -9 31 C-7.35 29.35 -5.7 27.7 -4 26 C-2.23488357 22.45846108 -1.16631238 18.71448206 0 14.9375 C0.33644531 13.94427734 0.67289062 12.95105469 1.01953125 11.92773438 C1.32246094 10.97060547 1.62539063 10.01347656 1.9375 9.02734375 C2.21464844 8.15843506 2.49179687 7.28952637 2.77734375 6.39428711 C3.25306367 3.88893287 3.25306367 3.88893287 1.56640625 1.68579102 C1.04949219 1.12947998 0.53257812 0.57316895 0 0 Z M12 3 C10.515 8.445 10.515 8.445 9 14 C13.78058281 13.48605843 13.78058281 13.48605843 15.875 11.3125 C17.38380949 8.21105827 16.81980367 6.27921467 16 3 C14.68 3 13.36 3 12 3 Z " fill="#020166" transform="translate(360,152)"/>
<path d="M0 0 C2.14580007 2.69609334 3.699262 5.25586281 5.05078125 8.421875 C5.41623047 9.27346191 5.78167969 10.12504883 6.15820312 11.00244141 C6.53912109 11.90913574 6.92003906 12.81583008 7.3125 13.75 C7.71275391 14.69665527 8.11300781 15.64331055 8.52539062 16.61865234 C17.53934269 38.09029259 25.04476676 60.25366467 31.34472656 82.67041016 C32.11569083 85.41129728 32.89817758 88.14882029 33.6796875 90.88671875 C36.55761914 101.01741137 39.36119395 111.16299742 41.9375 121.375 C42.14890625 122.20684814 42.3603125 123.03869629 42.578125 123.89575195 C43.34792301 126.9994911 44 129.78936006 44 133 C41.03 133.99 41.03 133.99 38 135 C33.25595488 120.07761369 28.89519847 105.1163641 24.93164062 89.96826172 C22.94611273 82.42344999 20.82669323 74.94634556 18.5 67.5 C15.36564575 57.46738364 12.65941216 47.33884124 9.99804688 37.17260742 C7.58337054 28.01302181 4.94378656 18.94576696 2.08203125 9.91601562 C1.80746094 9.04267578 1.53289063 8.16933594 1.25 7.26953125 C1.00765625 6.51260986 0.7653125 5.75568848 0.515625 4.97583008 C0 3 0 3 0 0 Z " fill="#F4F4F4" transform="translate(59,32)"/>
<path d="M0 0 C2.14576637 -0.02685938 4.29162645 -0.04633088 6.4375 -0.0625 C7.63246094 -0.07410156 8.82742188 -0.08570313 10.05859375 -0.09765625 C13 0 13 0 14 1 C15.07822521 6.96351721 15.09585232 12.96130397 15 19 C15.66 19 16.32 19 17 19 C17.226875 18.47664063 17.45375 17.95328125 17.6875 17.4140625 C19.46357702 14.14734942 21.71784487 11.29615857 24 8.375 C24.67675781 7.49714844 24.67675781 7.49714844 25.3671875 6.6015625 C27.15940597 4.28970673 28.92951793 2.07048207 31 0 C34.0390625 -0.1953125 34.0390625 -0.1953125 37.625 -0.125 C39.40777344 -0.09792969 39.40777344 -0.09792969 41.2265625 -0.0703125 C42.14179688 -0.04710937 43.05703125 -0.02390625 44 0 C43.25363281 0.4434375 42.50726563 0.886875 41.73828125 1.34375 C37.81069858 5.15367327 36.76993358 9.35097771 35.1875 14.5 C34.87619141 15.45003906 34.56488281 16.40007812 34.24414062 17.37890625 C32.9274935 21.49379023 32 24.63572485 32 29 C32.66 29.66 33.32 30.32 34 31 C28.39 31 22.78 31 17 31 C18.65 29.68 20.3 28.36 22 27 C23.44652472 23.77112303 23.44652472 23.77112303 24.3125 20.25 C24.63863281 19.07953125 24.96476562 17.9090625 25.30078125 16.703125 C25.53152344 15.81109375 25.76226562 14.9190625 26 14 C25.505 13.505 25.505 13.505 25 13 C24.58637207 13.54527344 24.17274414 14.09054688 23.74658203 14.65234375 C21.87917855 17.10655558 20.00225808 19.55331921 18.125 22 C17.47402344 22.85851562 16.82304687 23.71703125 16.15234375 24.6015625 C15.52714844 25.41367188 14.90195312 26.22578125 14.2578125 27.0625 C13.6817627 27.81660156 13.10571289 28.57070312 12.51220703 29.34765625 C12.01317871 29.89292969 11.51415039 30.43820313 11 31 C10.34 31 9.68 31 9 31 C7.9108272 28.8216544 7.71967644 27.2796036 7.46484375 24.8671875 C7.37783203 24.06152344 7.29082031 23.25585938 7.20117188 22.42578125 C7.11416016 21.58402344 7.02714844 20.74226563 6.9375 19.875 C6.84662109 19.02550781 6.75574219 18.17601562 6.66210938 17.30078125 C6.4379632 15.2008855 6.21853552 13.10048707 6 11 C5.52949219 12.07894531 5.05898438 13.15789062 4.57421875 14.26953125 C4.30955811 14.87643799 4.04489746 15.48334473 3.7722168 16.10864258 C1.9932123 20.46588187 1 24.29588713 1 29 C1.66 29.66 2.32 30.32 3 31 C-0.96 31 -4.92 31 -9 31 C-8.22116455 30.46084961 -7.4423291 29.92169922 -6.63989258 29.36621094 C-3.63249558 26.67059532 -2.91356036 24.96708187 -1.76171875 21.140625 C-1.24448242 19.46806641 -1.24448242 19.46806641 -0.71679688 17.76171875 C-0.37712891 16.60285156 -0.03746094 15.44398438 0.3125 14.25 C0.85100586 12.48849609 0.85100586 12.48849609 1.40039062 10.69140625 C2.2823585 7.79855161 3.14817793 4.90184633 4 2 C2.68 1.34 1.36 0.68 0 0 Z M27 9 C28 11 28 11 28 11 Z " fill="#020166" transform="translate(464,152)"/>
<path d="M0 0 C4.29 0 8.58 0 13 0 C13.19916016 1.57201172 13.19916016 1.57201172 13.40234375 3.17578125 C13.58057235 4.55470778 13.75896641 5.93361293 13.9375 7.3125 C14.02451172 8.00279297 14.11152344 8.69308594 14.20117188 9.40429688 C14.59210135 12.40142288 15.0415004 15.12450119 16 18 C16.35602295 17.45472656 16.7120459 16.90945312 17.07885742 16.34765625 C27.16819839 1.24510844 27.16819839 1.24510844 31.93896484 -0.85253906 C35.7398522 -1.54360949 39.30715095 -0.99375672 43 0 C42.25363281 0.59425781 41.50726563 1.18851563 40.73828125 1.80078125 C36.79527087 5.74657329 35.71497227 10.96442153 34.1875 16.1875 C33.87619141 17.19748047 33.56488281 18.20746094 33.24414062 19.24804688 C31.63095795 24.0411003 31.63095795 24.0411003 31 29 C31.99 29.66 32.98 30.32 34 31 C28.06 31 22.12 31 16 31 C19 29 19 29 21 28 C21.96014442 25.48325781 22.82043984 23.00320494 23.625 20.4375 C23.85445313 19.72658203 24.08390625 19.01566406 24.3203125 18.28320312 C24.88694208 16.52429047 25.44434258 14.76240961 26 13 C25.505 12.505 25.505 12.505 25 12 C23.60311926 13.85337771 22.2075498 15.70774374 20.8125 17.5625 C20.4004834 18.1080957 19.9884668 18.65369141 19.56396484 19.21582031 C17.33510276 22.17768745 15.18815101 25.17114388 13.125 28.25 C12.42375 29.1575 11.7225 30.065 11 31 C10.01 31 9.02 31 8 31 C7.01 24.07 6.02 17.14 5 10 C4.154375 12.578125 3.30875 15.15625 2.4375 17.8125 C2.16736084 18.62050049 1.89722168 19.42850098 1.61889648 20.26098633 C0.17120299 24.59867692 0.17120299 24.59867692 1 29 C1.66 29.66 2.32 30.32 3 31 C-0.96 31 -4.92 31 -9 31 C-8.25363281 30.41863281 -7.50726563 29.83726562 -6.73828125 29.23828125 C-2.66475955 25.16475955 -1.68195526 19.58799284 -0.1875 14.1875 C0.12380859 13.11306641 0.43511719 12.03863281 0.75585938 10.93164062 C1.51854578 8.29157231 2.26597527 5.64815252 3 3 C2.01 2.01 1.02 1.02 0 0 Z " fill="#020166" transform="translate(281,152)"/>
<path d="M0 0 C12.87 0 25.74 0 39 0 C39 5.61 39 11.22 39 17 C26.13 17 13.26 17 0 17 C0 11.39 0 5.78 0 0 Z " fill="#020166" transform="translate(645,84)"/>
<path d="M0 0 C0.74056641 0.00451172 1.48113281 0.00902344 2.24414062 0.01367188 C4.05862899 0.02537825 5.87307534 0.04331102 7.6875 0.0625 C6.8125 7.6875 6.8125 7.6875 5.6875 11.0625 C5.0275 11.0625 4.3675 11.0625 3.6875 11.0625 C3.378125 10.093125 3.06875 9.12375 2.75 8.125 C1.99226658 5.22184208 1.99226658 5.22184208 0.6875 4.0625 C-3.89431816 3.67421033 -6.39178065 3.61984647 -10.5625 5.625 C-14.95233723 9.51599209 -17.24837825 13.46641349 -18.1875 19.1875 C-18.36539876 23.95509481 -18.36539876 23.95509481 -16.3125 28.0625 C-13.54335693 29.27400009 -11.34278259 30.0625 -8.3125 30.0625 C-7.6525 26.4325 -6.9925 22.8025 -6.3125 19.0625 C-7.3025 18.4025 -8.2925 17.7425 -9.3125 17.0625 C-8.3125 16.0625 -8.3125 16.0625 -4.93359375 15.96484375 C-3.53902923 15.97151631 -2.14448257 15.98347468 -0.75 16 C-0.03908203 16.00451172 0.67183594 16.00902344 1.40429688 16.01367188 C3.16540013 16.02549136 4.92646036 16.04342737 6.6875 16.0625 C6.6875 16.7225 6.6875 17.3825 6.6875 18.0625 C5.6975 18.0625 4.7075 18.0625 3.6875 18.0625 C3.50574219 18.82175781 3.32398438 19.58101562 3.13671875 20.36328125 C2.88535156 21.35714844 2.63398437 22.35101563 2.375 23.375 C2.13136719 24.36113281 1.88773438 25.34726563 1.63671875 26.36328125 C0.67036703 29.11121967 -0.02417543 30.31659311 -2.3125 32.0625 C-7.77459997 33.88319999 -14.91981751 34.29099479 -20.39453125 32.30859375 C-23.33311298 30.41153466 -25.46640892 27.99637279 -27.3125 25.0625 C-28.26994927 19.42993808 -28.10421846 13.47289663 -24.84765625 8.62890625 C-17.69087232 1.32643715 -9.79645344 -0.11381045 0 0 Z " fill="#020166" transform="translate(842.3125,150.9375)"/>
<path d="M0 0 C9.24 0 18.48 0 28 0 C27.67 2.31 27.34 4.62 27 7 C26.01 7 25.02 7 24 7 C23.34 6.01 22.68 5.02 22 4 C18.96133201 3.58862798 16.07840297 3.86806844 13 4 C12.01 6.97 11.02 9.94 10 13 C14.37678665 11.90580334 17.4978054 10.82809962 21 8 C20.71572583 9.58467728 20.42225182 11.1677057 20.125 12.75 C19.96257813 13.63171875 19.80015625 14.5134375 19.6328125 15.421875 C19.03203736 17.86947744 18.22002883 19.80599857 17 22 C16.814375 21.38125 16.62875 20.7625 16.4375 20.125 C14.28562767 16.94397134 11.62466237 16.80548053 8 16 C7.34 19.96 6.68 23.92 6 28 C12.20099169 27.56484269 15.74950055 26.29443102 21 23 C21.99 22.67 22.98 22.34 24 22 C23.41321669 25.52069985 22.64350079 27.71299843 21 31 C11.1 31 1.2 31 -9 31 C-6 29 -6 29 -4 29 C-3.84144531 28.3915625 -3.68289063 27.783125 -3.51953125 27.15625 C-1.26581327 18.68924321 1.34966804 10.34906944 4 2 C2.68 1.67 1.36 1.34 0 1 C0 0.67 0 0.34 0 0 Z " fill="#020166" transform="translate(556,152)"/>
<path d="M0 0 C9.24 0 18.48 0 28 0 C27.34 2.64 26.68 5.28 26 8 C25.34 8 24.68 8 24 8 C23.505 6.02 23.505 6.02 23 4 C17.555 3.505 17.555 3.505 12 3 C11.01 6.63 10.02 10.26 9 14 C10.27875 13.566875 11.5575 13.13375 12.875 12.6875 C13.59429688 12.44386719 14.31359375 12.20023438 15.0546875 11.94921875 C17.33994905 11.03664453 17.33994905 11.03664453 19 8 C19.66 8 20.32 8 21 8 C20.52372025 9.95903745 20.04388577 11.91721097 19.5625 13.875 C19.29566406 14.96554688 19.02882813 16.05609375 18.75390625 17.1796875 C18 20 18 20 17 22 C16.34 22 15.68 22 15 22 C15 20.35 15 18.7 15 17 C12.69 16.67 10.38 16.34 8 16 C7.01 19.63 6.02 23.26 5 27 C10.17596199 28.2939905 13.19720828 27.03567869 18 25 C20.45580941 23.47887192 20.45580941 23.47887192 22 22 C22.66 22.33 23.32 22.66 24 23 C23.01 25.64 22.02 28.28 21 31 C11.1 31 1.2 31 -9 31 C-7.35 29.35 -5.7 27.7 -4 26 C-2.84327783 23.81686334 -2.84327783 23.81686334 -2.234375 21.53125 C-1.98429687 20.71269531 -1.73421875 19.89414063 -1.4765625 19.05078125 C-1.11691406 17.78814453 -1.11691406 17.78814453 -0.75 16.5 C-0.49476563 15.65824219 -0.23953125 14.81648437 0.0234375 13.94921875 C1.20654294 9.99515582 2.29892159 6.07293174 3 2 C2.01 1.67 1.02 1.34 0 1 C0 0.67 0 0.34 0 0 Z " fill="#020166" transform="translate(510,152)"/>
<path d="M0 0 C3.96 0 7.92 0 12 0 C14.97 5.61 17.94 11.22 21 17 C22.68373405 13.6325319 23.68218415 10.84984234 24.625 7.25 C24.88539063 6.26515625 25.14578125 5.2803125 25.4140625 4.265625 C25.60742188 3.51796875 25.80078125 2.7703125 26 2 C25.01 1.67 24.02 1.34 23 1 C23 0.67 23 0.34 23 0 C26.96 0 30.92 0 35 0 C33.8385144 1.03966919 33.8385144 1.03966919 32.65356445 2.1003418 C29.80590484 5.21209571 28.80894041 7.40766526 27.54296875 11.39453125 C27.15302734 12.59658203 26.76308594 13.79863281 26.36132812 15.03710938 C25.97396484 16.28298828 25.58660156 17.52886719 25.1875 18.8125 C24.77809329 20.09094416 24.36729848 21.36894467 23.95507812 22.64648438 C22.95632747 25.76023643 21.97189984 28.87778366 21 32 C20.34 32 19.68 32 19 32 C18.64172119 31.30849854 18.28344238 30.61699707 17.91430664 29.90454102 C16.29898162 26.7895148 14.68078087 23.67599157 13.0625 20.5625 C12.49853516 19.47388672 11.93457031 18.38527344 11.35351562 17.26367188 C10.81533203 16.22919922 10.27714844 15.19472656 9.72265625 14.12890625 C9.22515869 13.17056885 8.72766113 12.21223145 8.21508789 11.22485352 C7.1857807 9.09189487 7.1857807 9.09189487 6 8 C5.15774 10.55986879 4.32601449 13.12239015 3.5 15.6875 C3.26152344 16.40873047 3.02304687 17.12996094 2.77734375 17.87304688 C1.02131228 23.32001048 1.02131228 23.32001048 1 29 C1.66 29.66 2.32 30.32 3 31 C-0.96 31 -4.92 31 -9 31 C-8.25363281 30.39542969 -7.50726562 29.79085937 -6.73828125 29.16796875 C-2.90277371 25.32975538 -1.74519879 20.38447729 -0.1875 15.3125 C0.12380859 14.35021484 0.43511719 13.38792969 0.75585938 12.39648438 C2.3759727 7.78570345 2.3759727 7.78570345 3 3 C2.01 2.01 1.02 1.02 0 0 Z " fill="#020166" transform="translate(782,152)"/>
<path d="M0 0 C4.29 0 8.58 0 13 0 C14.33819498 2.6226232 15.6707151 5.24786599 17 7.875 C17.3815625 8.62136719 17.763125 9.36773437 18.15625 10.13671875 C18.5171875 10.85214844 18.878125 11.56757813 19.25 12.3046875 C19.58515625 12.96452637 19.9203125 13.62436523 20.265625 14.30419922 C21 16 21 16 21 18 C21.66 18 22.32 18 23 18 C23.50374325 15.79917999 23.99781174 13.59704153 24.4765625 11.390625 C24.89851754 9.46348705 25.35076055 7.54299463 25.8125 5.625 C25.9053125 4.325625 25.9053125 4.325625 26 3 C25.01 2.01 24.02 1.02 23 0 C26.96 0 30.92 0 35 0 C34.67 0.66 34.34 1.32 34 2 C33.01 2 32.02 2 31 2 C30.62875 3.258125 30.2575 4.51625 29.875 5.8125 C27.35062003 14.23929496 24.66003529 22.6152933 22 31 C21.01 31 20.02 31 19 31 C15.04 23.41 11.08 15.82 7 8 C6.01 10.7225 5.02 13.445 4 16.25 C3.68675781 17.10110352 3.37351562 17.95220703 3.05078125 18.82910156 C2.80714844 19.5094043 2.56351563 20.18970703 2.3125 20.890625 C2.06113281 21.58188477 1.80976562 22.27314453 1.55078125 22.98535156 C0.82419279 25.29497112 0.82419279 25.29497112 1 29 C1.99 29.66 2.98 30.32 4 31 C0.04 31 -3.92 31 -8 31 C-6.68 30.34 -5.36 29.68 -4 29 C-3.03728869 27.18460991 -3.03728869 27.18460991 -2.5625 24.9375 C-2.33046875 24.06222656 -2.0984375 23.18695313 -1.859375 22.28515625 C-1.57578125 21.20105469 -1.2921875 20.11695313 -1 19 C-0.12132692 15.95323598 0.78438418 12.91459366 1.6875 9.875 C2.12948474 8.37256589 2.57093505 6.86997441 3.01171875 5.3671875 C3.33785156 4.25601563 3.66398438 3.14484375 4 2 C2.68 1.34 1.36 0.68 0 0 Z " fill="#020166" transform="translate(900,152)"/>
<path d="M0 0 C4.29 0 8.58 0 13 0 C14.33819498 2.6226232 15.6707151 5.24786599 17 7.875 C17.3815625 8.62136719 17.763125 9.36773437 18.15625 10.13671875 C18.5171875 10.85214844 18.878125 11.56757813 19.25 12.3046875 C19.58515625 12.96452637 19.9203125 13.62436523 20.265625 14.30419922 C21 16 21 16 21 18 C21.66 18 22.32 18 23 18 C23.50374325 15.79917999 23.99781174 13.59704153 24.4765625 11.390625 C24.89851754 9.46348705 25.35076055 7.54299463 25.8125 5.625 C25.9053125 4.325625 25.9053125 4.325625 26 3 C25.01 2.01 24.02 1.02 23 0 C26.96 0 30.92 0 35 0 C34.67 0.66 34.34 1.32 34 2 C33.01 2 32.02 2 31 2 C30.62875 3.258125 30.2575 4.51625 29.875 5.8125 C27.35062003 14.23929496 24.66003529 22.6152933 22 31 C21.01 31 20.02 31 19 31 C15.04 23.41 11.08 15.82 7 8 C6.01 10.7225 5.02 13.445 4 16.25 C3.68675781 17.10110352 3.37351562 17.95220703 3.05078125 18.82910156 C2.80714844 19.5094043 2.56351563 20.18970703 2.3125 20.890625 C2.06113281 21.58188477 1.80976562 22.27314453 1.55078125 22.98535156 C0.82419279 25.29497112 0.82419279 25.29497112 1 29 C1.99 29.66 2.98 30.32 4 31 C0.04 31 -3.92 31 -8 31 C-6.68 30.34 -5.36 29.68 -4 29 C-3.03728869 27.18460991 -3.03728869 27.18460991 -2.5625 24.9375 C-2.33046875 24.06222656 -2.0984375 23.18695313 -1.859375 22.28515625 C-1.57578125 21.20105469 -1.2921875 20.11695313 -1 19 C-0.12132692 15.95323598 0.78438418 12.91459366 1.6875 9.875 C2.12948474 8.37256589 2.57093505 6.86997441 3.01171875 5.3671875 C3.33785156 4.25601563 3.66398438 3.14484375 4 2 C2.68 1.34 1.36 0.68 0 0 Z " fill="#020166" transform="translate(725,152)"/>
<path d="M0 0 C-0.875 7.625 -0.875 7.625 -2 11 C-2.66 11 -3.32 11 -4 11 C-4.99 8.69 -5.98 6.38 -7 4 C-11.23870843 3.57612916 -13.47369306 3.69040768 -17.1875 5.875 C-21.76161741 10.17933033 -23.60185443 16.31251738 -24.5 22.375 C-23.84123157 25.83353427 -22.89890172 27.01654093 -20 29 C-15.89321798 29.71422296 -14.32807166 29.20189025 -10.75 27 C-9.8425 26.34 -8.935 25.68 -8 25 C-7.34 25 -6.68 25 -6 25 C-7.53301975 29.29245529 -9.9677088 31.01922537 -14 33 C-19.3182802 33.7902348 -23.59804992 33.65090539 -28.5 31.375 C-31.86115658 28.18190125 -33.88807647 25.59755869 -34.09375 20.82421875 C-33.63638705 14.02094485 -31.12283141 10.07458524 -26.25 5.3125 C-17.81241471 -0.69116646 -9.9161035 -0.34861301 0 0 Z " fill="#020166" transform="translate(967,151)"/>
<path d="M0 0 C9.24 0 18.48 0 28 0 C27.34 2.97 26.68 5.94 26 9 C25.34 9 24.68 9 24 9 C23.67 7.35 23.34 5.7 23 4 C20.03 3.505 20.03 3.505 17 3 C16.82984375 3.64324219 16.6596875 4.28648437 16.484375 4.94921875 C14.73587704 11.46888402 12.81207863 17.91401449 10.76953125 24.34765625 C9.90711938 26.85984477 9.90711938 26.85984477 10 29 C10.99 29.66 11.98 30.32 13 31 C7.06 31 1.12 31 -5 31 C-2 29 -2 29 0 28 C1.03724517 25.49220438 1.03724517 25.49220438 1.9453125 22.43359375 C2.29980469 21.30888672 2.65429688 20.18417969 3.01953125 19.02539062 C3.38433594 17.84138672 3.74914062 16.65738281 4.125 15.4375 C4.49753906 14.24962891 4.87007812 13.06175781 5.25390625 11.83789062 C6.17609408 8.89398331 7.09111433 5.94803605 8 3 C4.44871724 4.71325398 1.7162443 6.14794348 -1 9 C-1.66 9 -2.32 9 -3 9 C-2.01 6.03 -1.02 3.06 0 0 Z " fill="#020166" transform="translate(608,152)"/>
<path d="M0 0 C9.24 0 18.48 0 28 0 C27.67 2.64 27.34 5.28 27 8 C26.01 8.495 26.01 8.495 25 9 C24.5875 8.175 24.175 7.35 23.75 6.5 C23.1725 5.675 22.595 4.85 22 4 C20.68 4 19.36 4 18 4 C16.82627027 7.60190542 15.66223744 11.20687151 14.5 14.8125 C14.16613281 15.83666016 13.83226562 16.86082031 13.48828125 17.91601562 C13.17246094 18.89892578 12.85664063 19.88183594 12.53125 20.89453125 C12.23798828 21.80050049 11.94472656 22.70646973 11.64257812 23.63989258 C10.86864823 26.0747683 10.86864823 26.0747683 11 29 C11.99 29.66 12.98 30.32 14 31 C8.06 31 2.12 31 -4 31 C-1 29 -1 29 1 29 C1.15855469 28.37996094 1.31710937 27.75992188 1.48046875 27.12109375 C3.63218959 18.95406491 6.27262926 10.98807004 9 3 C7.68397477 3.61754259 6.37226444 4.24428742 5.0625 4.875 C4.33160156 5.22304687 3.60070312 5.57109375 2.84765625 5.9296875 C0.83667541 6.8684977 0.83667541 6.8684977 0 9 C-0.66 9 -1.32 9 -2 9 C-1.34 6.03 -0.68 3.06 0 0 Z " fill="#020166" transform="translate(414,152)"/>
<path d="M0 0 C0.10055982 10.05598201 0.09945892 19.98707052 -1 30 C-0.01 30.33 0.98 30.66 2 31 C2 31.33 2 31.66 2 32 C-3.28 32 -8.56 32 -14 32 C-12.68 31.01 -11.36 30.02 -10 29 C-9.18685089 25.39534252 -9.18685089 25.39534252 -9 22 C-14.743068 21.93672559 -14.743068 21.93672559 -19.7109375 24.40234375 C-21.23632914 26.21947959 -21.23632914 26.21947959 -23 29 C-22.34 29.99 -21.68 30.98 -21 32 C-24.63 32 -28.26 32 -32 32 C-29.53135222 29.52695961 -27.05910632 27.05825109 -24.5703125 24.60546875 C-19.48351835 19.57555569 -14.64274396 14.43924179 -10 9 C-8.56871799 7.32799048 -7.13113941 5.66135164 -5.6875 4 C-4.70330078 2.8553125 -4.70330078 2.8553125 -3.69921875 1.6875 C-2 0 -2 0 0 0 Z M-9 12 C-10.05258732 13.11673392 -11.06786021 14.26885703 -12.0625 15.4375 C-12.61035156 16.07558594 -13.15820312 16.71367187 -13.72265625 17.37109375 C-15.1028452 18.7861495 -15.1028452 18.7861495 -15 20 C-13.02 20 -11.04 20 -9 20 C-7.64560332 17.29120665 -7.93498549 14.99066732 -8 12 C-8.33 12 -8.66 12 -9 12 Z " fill="#020166" transform="translate(348,151)"/>
<path d="M0 0 C5.61 0 11.22 0 17 0 C15.02 0.99 15.02 0.99 13 2 C12.00484738 3.95244131 12.00484738 3.95244131 11.5 6.3125 C10.09545114 11.64357771 8.45773755 16.86920536 6.76953125 22.1171875 C5.82806194 25.14682086 5.82806194 25.14682086 6 29 C6.99 29.66 7.98 30.32 9 31 C3.06 31 -2.88 31 -9 31 C-7.35 29.35 -5.7 27.7 -4 26 C-2.23488357 22.45846108 -1.16631238 18.71448206 0 14.9375 C0.33644531 13.94427734 0.67289063 12.95105469 1.01953125 11.92773438 C1.32246094 10.97060547 1.62539063 10.01347656 1.9375 9.02734375 C2.21464844 8.15843506 2.49179687 7.28952637 2.77734375 6.39428711 C3.31762451 3.49086251 3.31762451 3.49086251 0 0 Z " fill="#020166" transform="translate(881,152)"/>
<path d="M0 0 C5.61 0 11.22 0 17 0 C15.02 0.99 15.02 0.99 13 2 C12.00484738 3.95244131 12.00484738 3.95244131 11.5 6.3125 C10.09545114 11.64357771 8.45773755 16.86920536 6.76953125 22.1171875 C5.82806194 25.14682086 5.82806194 25.14682086 6 29 C6.99 29.66 7.98 30.32 9 31 C3.06 31 -2.88 31 -9 31 C-7.35 29.35 -5.7 27.7 -4 26 C-2.23488357 22.45846108 -1.16631238 18.71448206 0 14.9375 C0.33644531 13.94427734 0.67289063 12.95105469 1.01953125 11.92773438 C1.32246094 10.97060547 1.62539063 10.01347656 1.9375 9.02734375 C2.21464844 8.15843506 2.49179687 7.28952637 2.77734375 6.39428711 C3.31762451 3.49086251 3.31762451 3.49086251 0 0 Z " fill="#020166" transform="translate(706,152)"/>
<path d="M0 0 C5.61 0 11.22 0 17 0 C15.68 1.32 14.36 2.64 13 4 C11.84230829 6.42671239 11.84230829 6.42671239 11.078125 9.09765625 C10.62373047 10.54688477 10.62373047 10.54688477 10.16015625 12.02539062 C9.85980469 13.02763672 9.55945313 14.02988281 9.25 15.0625 C8.93417969 16.06861328 8.61835937 17.07472656 8.29296875 18.11132812 C6.57040816 23.45986339 6.57040816 23.45986339 6 29 C6.99 29.66 7.98 30.32 9 31 C3.06 31 -2.88 31 -9 31 C-6 29 -6 29 -4 29 C-3.84144531 28.3915625 -3.68289063 27.783125 -3.51953125 27.15625 C-1.26581327 18.68924321 1.34966804 10.34906944 4 2 C2.68 1.67 1.36 1.34 0 1 C0 0.67 0 0.34 0 0 Z " fill="#020166" transform="translate(762,152)"/>
<path d="M0 0 C5.94 0 11.88 0 18 0 C16.35 1.65 14.7 3.3 13 5 C11.63095519 7.75354119 11.63095519 7.75354119 10.76171875 10.73828125 C10.41689453 11.80498047 10.07207031 12.87167969 9.71679688 13.97070312 C9.37712891 15.07349609 9.03746094 16.17628906 8.6875 17.3125 C8.32849609 18.43462891 7.96949219 19.55675781 7.59960938 20.71289062 C6.71929099 23.47122156 5.85334475 26.23322924 5 29 C6.32 29.66 7.64 30.32 9 31 C3.39 31 -2.22 31 -8 31 C-6.68 30.01 -5.36 29.02 -4 28 C-2.84767704 25.80293753 -2.84767704 25.80293753 -2.11328125 23.2890625 C-1.81486328 22.37382812 -1.51644531 21.45859375 -1.20898438 20.515625 C-0.91314453 19.56171875 -0.61730469 18.6078125 -0.3125 17.625 C-0.00505859 16.67882812 0.30238281 15.73265625 0.61914062 14.7578125 C1.97830696 10.5226859 3.18614003 6.3773656 4 2 C2.68 1.34 1.36 0.68 0 0 Z " fill="#020166" transform="translate(444,152)"/>
<path d="M0 0 C3 1 3 1 4.11572266 3.01171875 C4.4616748 3.89472656 4.80762695 4.77773438 5.1640625 5.6875 C5.75695068 7.18108032 5.75695068 7.18108032 6.36181641 8.70483398 C6.98709229 10.33594116 6.98709229 10.33594116 7.625 12 C8.06376465 13.12414307 8.5025293 14.24828613 8.95458984 15.40649414 C10.32066317 18.93121874 11.66476112 22.46348788 13 26 C13.40089844 27.0607373 13.80179688 28.12147461 14.21484375 29.21435547 C23.15768399 53.06569326 30.3059389 77.43592075 37 102 C37.25974609 102.94713867 37.51949219 103.89427734 37.78710938 104.87011719 C38.5106097 107.51582211 39.22601265 110.16354222 39.9375 112.8125 C40.14914795 113.58907959 40.3607959 114.36565918 40.57885742 115.16577148 C41.48740012 118.59765713 42 121.4213322 42 125 C41.34 125 40.68 125 40 125 C37.30715971 116.15373316 34.78775838 107.30417465 32.625 98.3125 C30.39986239 89.13592889 27.60348349 80.19734931 24.6796875 71.22265625 C23.22810556 66.75705942 21.90452398 62.26720837 20.625 57.75 C18.48958416 50.31443817 16.01887869 43.00104101 13.5 35.6875 C13.13213379 34.6140332 12.76426758 33.54056641 12.38525391 32.43457031 C8.9821629 22.65425833 5.05230523 13.13659547 0.69921875 3.7421875 C0 2 0 2 0 0 Z " fill="#2B2B2B" transform="translate(63,39)"/>
<path d="M0 0 C18.01923935 -0.46582947 34.07353561 0.24463084 50.94921875 6.9140625 C58.45262863 9.58493055 66.33219139 9.3088202 74.20898438 9.51757812 C75.64274414 9.56881836 75.64274414 9.56881836 77.10546875 9.62109375 C77.97324951 9.6461499 78.84103027 9.67120605 79.73510742 9.69702148 C82 10 82 10 85 12 C69.31571318 13.22093251 56.39835441 12.91468436 41.42089844 7.52734375 C40.56270508 7.21925781 39.70451172 6.91117188 38.8203125 6.59375 C38.05992676 6.31208984 37.29954102 6.03042969 36.51611328 5.74023438 C31.16978657 4.16735813 25.73455808 3.8624051 20.19140625 3.68359375 C18.95068359 3.64169922 17.70996094 3.59980469 16.43164062 3.55664062 C15.15482422 3.51732422 13.87800781 3.47800781 12.5625 3.4375 C11.25861328 3.39431641 9.95472656 3.35113281 8.61132812 3.30664062 C5.40764684 3.20102476 2.20389389 3.09891899 -1 3 C-0.67 2.01 -0.34 1.02 0 0 Z " fill="#161616" transform="translate(91,22)"/>
<path d="M0 0 C1.69318655 2.53977983 2.8371818 4.75162994 4.0234375 7.53515625 C4.405 8.42783203 4.7865625 9.32050781 5.1796875 10.24023438 C5.77136719 11.63725586 5.77136719 11.63725586 6.375 13.0625 C6.76171875 13.96677734 7.1484375 14.87105469 7.546875 15.80273438 C9.79955649 21.09048841 11.98322556 26.4011195 14.09838867 31.74536133 C15.01981181 34.04954294 15.97591674 36.3373335 16.9375 38.625 C19.46397713 44.9461467 21.42389126 51.44415375 23.37988281 57.95849609 C23.98277212 59.94328363 24.60995356 61.91892583 25.2421875 63.89453125 C25.61601563 65.10496094 25.98984375 66.31539063 26.375 67.5625 C26.71273437 68.63628906 27.05046875 69.71007812 27.3984375 70.81640625 C28.09070243 74.48001611 27.70686921 77.3600826 27 81 C24.68280774 77.06077316 23.83607766 72.76649308 22.75 68.375 C21.03262675 61.64889176 19.14007079 55.02130196 16.9375 48.4375 C16.70450195 47.73737793 16.47150391 47.03725586 16.23144531 46.31591797 C14.3534664 40.7952851 12.19295727 35.40178856 10 30 C9.30891353 28.27513283 8.61880962 26.54987166 7.9296875 24.82421875 C7.59066406 23.97666016 7.25164062 23.12910156 6.90234375 22.25585938 C3.8046875 14.51171875 3.8046875 14.51171875 2.85009766 12.11547852 C2.17162584 10.42709302 1.47213602 8.74715828 0.765625 7.0703125 C-0.14207014 4.61583075 -0.14833538 2.59586911 0 0 Z " fill="#0E0E0E" transform="translate(73,34)"/>
<path d="M0 0 C1.94650023 2.91975035 2.53646204 4.64590046 3.2890625 8 C3.61777344 9.4540625 3.61777344 9.4540625 3.953125 10.9375 C4.28570312 12.4534375 4.28570312 12.4534375 4.625 14 C4.85445313 15.010625 5.08390625 16.02125 5.3203125 17.0625 C7 24.58110119 7 24.58110119 7 28 C8.32 28.33 9.64 28.66 11 29 C10.67 29.66 10.34 30.32 10 31 C9.01 31 8.02 31 7 31 C7.2165625 31.85722656 7.433125 32.71445313 7.65625 33.59765625 C10.42179262 44.9543058 10.42179262 44.9543058 10 51 C9.34 51 8.68 51 8 51 C7.83395264 50.16452637 7.66790527 49.32905273 7.49682617 48.46826172 C6.86581145 45.29589706 6.23385802 42.12372108 5.60131836 38.95166016 C5.33044857 37.59235724 5.05992709 36.23298485 4.78979492 34.87353516 C4.52737761 33.55314115 4.26444747 32.23284896 4.00100708 30.91265869 C3.73648729 29.58652901 3.47320945 28.26015101 3.21115112 26.93353271 C2.55683198 23.65012255 1.85779889 20.39109347 1.09619141 17.12988281 C0.81308105 15.91397461 0.5299707 14.69806641 0.23828125 13.4453125 C-0.02299561 12.37039551 -0.28427246 11.29547852 -0.5534668 10.18798828 C-1.05984637 6.57273157 -0.66627938 3.57396204 0 0 Z " fill="#080606" transform="translate(101,111)"/>
<path d="M0 0 C1.31291016 -0.03867188 1.31291016 -0.03867188 2.65234375 -0.078125 C5.0625 0.25 5.0625 0.25 6.88671875 1.63671875 C8.0625 3.25 8.0625 3.25 7.9375 5.3125 C7.0625 7.25 7.0625 7.25 4.0625 9.25 C1.90625 9.55078125 1.90625 9.55078125 -0.4375 9.5625 C-1.59765625 9.58763672 -1.59765625 9.58763672 -2.78125 9.61328125 C-5.44954887 9.1637309 -6.35020023 8.41263173 -7.9375 6.25 C-7.75 3.625 -7.75 3.625 -6.9375 1.25 C-4.48367866 0.02308933 -2.73765897 0.04824069 0 0 Z " fill="#F2F2F2" transform="translate(55.9375,10.75)"/>
<path d="M0 0 C4.95 0 9.9 0 15 0 C14.34 1.98 13.68 3.96 13 6 C8.05 6 3.1 6 -2 6 C-1.34 4.02 -0.68 2.04 0 0 Z " fill="#020166" transform="translate(585,170)"/>
<path d="M0 0 C2.5625 0.1875 2.5625 0.1875 4.5625 2.1875 C4.5625 5.5152658 4.48118095 8.07660273 2.29296875 10.72265625 C-0.38619752 13.04912215 -2.8731724 14.77623143 -6.4375 15.1875 C-5.4375 12.1875 -5.4375 12.1875 -2.4375 10.1875 C-2.788125 9.630625 -3.13875 9.07375 -3.5 8.5 C-4.66422585 5.62824289 -4.3081847 4.11616672 -3.4375 1.1875 C-2.4375 0.1875 -2.4375 0.1875 0 0 Z " fill="#020166" transform="translate(853.4375,175.8125)"/>
<path d="M0 0 C1.69318655 2.53977983 2.8371818 4.75162994 4.0234375 7.53515625 C4.405 8.42783203 4.7865625 9.32050781 5.1796875 10.24023438 C5.77136719 11.63725586 5.77136719 11.63725586 6.375 13.0625 C6.76171875 13.96677734 7.1484375 14.87105469 7.546875 15.80273438 C8.70901279 18.53063834 9.85744869 21.26383885 11 24 C11.38961914 24.9266748 11.77923828 25.85334961 12.18066406 26.80810547 C12.54643555 27.6951416 12.91220703 28.58217773 13.2890625 29.49609375 C13.6185791 30.29072021 13.9480957 31.08534668 14.28759766 31.90405273 C15 34 15 34 15 37 C14.34 37.66 13.68 38.32 13 39 C12.64808594 37.97003906 12.29617187 36.94007812 11.93359375 35.87890625 C8.97675669 27.32252102 5.84570098 18.90745031 2.18530273 10.62329102 C0.6049434 6.94381481 -0.38981974 4.02293968 0 0 Z " fill="#211212" transform="translate(73,34)"/>
<path d="M0 0 C3 1 3 1 4.22680664 3.32910156 C4.61731201 4.3394043 5.00781738 5.34970703 5.41015625 6.390625 C5.84263672 7.49277344 6.27511719 8.59492187 6.72070312 9.73046875 C7.16349609 10.89191406 7.60628906 12.05335937 8.0625 13.25 C8.50916016 14.39597656 8.95582031 15.54195312 9.41601562 16.72265625 C10.24996055 18.86423679 11.07929767 21.00762123 11.90258789 23.15332031 C12.61535898 25.00224376 13.35788376 26.84006801 14.13452148 28.66308594 C15.19865707 31.53640211 15.1413358 33.96128022 15 37 C12.82910787 33.7436618 11.62068764 30.46339808 10.3125 26.8125 C7.86367561 20.10107933 5.13779417 13.55879199 2.18481445 7.05395508 C0 2.19874329 0 2.19874329 0 0 Z " fill="#171717" transform="translate(63,39)"/>
<path d="M0 0 C2.5625 0.1875 2.5625 0.1875 4.5625 2.1875 C4.00694444 6.74305556 4.00694444 6.74305556 2.5625 8.1875 C0.125 8.375 0.125 8.375 -2.4375 8.1875 C-3.0975 7.5275 -3.7575 6.8675 -4.4375 6.1875 C-3.71780303 0.28598485 -3.71780303 0.28598485 0 0 Z " fill="#020166" transform="translate(967.4375,175.8125)"/>
<path d="M0 0 C1.92592939 2.88889409 2.85839056 5.20191125 3.9453125 8.47265625 C4.29980469 9.53677734 4.65429688 10.60089844 5.01953125 11.69726562 C5.38433594 12.80779297 5.74914062 13.91832031 6.125 15.0625 C6.68380859 16.7340918 6.68380859 16.7340918 7.25390625 18.43945312 C10 26.73305861 10 26.73305861 10 29 C9.34 29 8.68 29 8 29 C6.6512107 25.29710704 5.32376389 21.58690549 4 17.875 C3.6184375 16.82828125 3.236875 15.7815625 2.84375 14.703125 C2.4828125 13.68476562 2.121875 12.66640625 1.75 11.6171875 C1.41484375 10.68503418 1.0796875 9.75288086 0.734375 8.79248047 C-0.06385027 5.75720765 -0.12903054 3.12495828 0 0 Z " fill="#222222" transform="translate(78,73)"/>
<path d="M0 0 C-0.33 0.99 -0.66 1.98 -1 3 C-9.415 3.495 -9.415 3.495 -18 4 C-17.67 3.01 -17.34 2.02 -17 1 C-11.27959989 0.1679418 -5.77759884 -0.12036664 0 0 Z " fill="#171717" transform="translate(129,137)"/>
<path d="M0 0 C3.60332615 6.84474617 5.82853234 13.35341022 4 21 C2.10203794 17.61847808 1.19776958 14.26563452 0.3125 10.5 C-0.09548828 8.81390625 -0.09548828 8.81390625 -0.51171875 7.09375 C-0.9634571 4.2315358 -0.97784414 2.67758663 0 0 Z " fill="#251111" transform="translate(96,94)"/>
<path d="M0 0 C2.13434444 3.20151666 3.69923724 6.49642488 5.25 10 C5.54390625 10.6290625 5.8378125 11.258125 6.140625 11.90625 C6.953125 13.75 6.953125 13.75 8 17 C7.34 17.99 6.68 18.98 6 20 C4.98914564 17.60824639 3.99120797 15.21238415 3 12.8125 C2.57074219 11.80219727 2.57074219 11.80219727 2.1328125 10.77148438 C0.60793701 7.05006206 -0.37610432 4.03528592 0 0 Z " fill="#1C1B1B" transform="translate(73,34)"/>
<path d="M0 0 C1.6396875 0.0928125 1.6396875 0.0928125 3.3125 0.1875 C2.9825 1.1775 2.6525 2.1675 2.3125 3.1875 C-0.6575 3.1875 -3.6275 3.1875 -6.6875 3.1875 C-3.6875 0.1875 -3.6875 0.1875 0 0 Z " fill="#141414" transform="translate(229.6875,132.8125)"/>
<path d="M0 0 C0 0.66 0 1.32 0 2 C-2.97 2.66 -5.94 3.32 -9 4 C-8.67 3.01 -8.34 2.02 -8 1 C-5.07175348 0.02391783 -3.04386724 -0.08226668 0 0 Z " fill="#111111" transform="translate(204,26)"/>
<path d="M0 0 C2 1 2 1 2.8515625 3.28515625 C3.10679688 4.20167969 3.36203125 5.11820312 3.625 6.0625 C3.88539062 6.98160156 4.14578125 7.90070313 4.4140625 8.84765625 C4.60742188 9.55792969 4.80078125 10.26820312 5 11 C4.01 11.495 4.01 11.495 3 12 C2.49440092 10.56445975 1.9957251 9.1264798 1.5 7.6875 C1.2215625 6.88699219 0.943125 6.08648437 0.65625 5.26171875 C0 3 0 3 0 0 Z " fill="#191919" transform="translate(91,117)"/>
<path d="M0 0 C1.99097846 2.98646769 2.94124926 5.59687262 4 9 C2.68 8.34 1.36 7.68 0 7 C0 4.69 0 2.38 0 0 Z " fill="#292929" transform="translate(71,54)"/>
</svg>
